<svg width="190" height="160" viewBox="0 0 190 160" fill="none" xmlns="http://www.w3.org/2000/svg">
<g clip-path="url(#clip0_2_3)">
<path d="M58.6 42.2C58.1 41.3 57.4 40.6 56.4 40.4C54.7 40.1 52.3 40.2 49.9 43.2C47.9 45.7 46.6 47 44.9 49.7C43.5 51.9 41 55.5 40.6 56.7C40.2 56.3 39.7 56 39.1 55.7C38.9 55.6 38.1 55.2 37.3 55.5C37 55.6 36.6 55.9 36.5 56.6C36.5 56.7 36.2 57.8 37.6 58.6C38 58.8 38.6 59.1 39.3 59C39.7 58.9 40.2 58.8 40.7 58.3C40.8 58.4 40.8 58.5 41 58.8C41.4 59.7 41.3 60.5 41.2 61.1C40.9 62.7 39.9 63.7 39.9 63.7C38.8 64.8 37.7 65.3 36.4 65.4C34.2 65.5 29.6 65.9 25.3 64C25.1 63.9 21.6 62.2 18.8 62.6C17.6 62.8 16.6 63.3 15.8 64C15.2 64.5 14.7 65.3 14.4 66.2C14 65 13.4 63.4 12.8 61.9C10.7 56.7 8.39998 53.6 6.19998 52.7C4.99998 52.2 3.89998 52.3 2.79998 53C2.69998 53.1 2.49998 53.3 2.49998 53.3C2.19998 53.5 1.99998 53.9 2.09998 54.3C2.39998 55.1 2.99998 55 4.49998 54.5C6.09998 54 8.19998 55.3 9.59998 57.6C10.4 58.9 11.1 60.5 11.9 62.3C12.4 63.7 12.9 65 13.3 66.1C11 65.2 8.89998 64.5 7.09998 64C6.59998 63.2 6.09998 62.4 5.39998 61.9C4.69998 61 3.89998 60.5 2.99998 60.3C1.59998 59.9 0.399984 60.3 0.0999838 61.2C-0.100016 61.7 -1.62125e-05 62.2 0.199984 62.6C0.699984 63.5 1.99998 64.2 4.39998 64.9C5.19998 65.1 6.09998 65.4 6.89998 65.7C7.49998 67.1 7.79998 68.6 7.99998 71.5C7.99998 71.7 8.19998 74.9 9.19998 78.8C9.69998 81.1 10.3 83.1 11.1 84.9C11.7 86.2 12.3 87.3 13 88.3C13.8 89.3 14.9 90.7 16.3 91.5C16.3 91.5 18.2 92.7 19.1 90.9C19.1 90.9 19.3 90.6 19 90.5C18.8 90.4 14.6 89 12.1 84.4C11.9 84 11.7 83.5 11.5 83C11 81.6 10.5 80.2 10.2 78.5C9.19998 74.6 8.99998 71.3 8.99998 71.3C8.99998 71.3 8.89998 70.8 8.89998 70.5C8.69998 68.4 8.39998 67.1 7.99998 66C10.4 66.9 12.6 68 14.2 69C14.3 69.3 14.4 69.5 14.3 69.6C14.3 69.7 14.6 70.7 14.9 71.7C15.4 73.2 16 74.2 16.6 74.5C16.8 74.7 17.1 74.6 17.2 74.4C17.3 74.3 17.3 74.3 17.3 74.2C17.3 74 17.3 73.8 17.1 73.7C16.4 73.2 15.6 71.1 15.3 69.7C15.7 69.9 16 70.1 16.3 70.3C18.2 71.5 19.4 72.4 19.4 72.4C30 79.9 30.6 87.8 30.7 89.1C30.7 89.1 30.8 89.9 30.6 91.4C30.4 92.6 30.1 93.9 29.6 95.1C28.6 97.6 26.8 99.6 24.2 101C21.8 102.2 19 102.7 16.3 102.4C13.3 102 10.7 100.7 8.59998 98.6C7.49998 97.5 6.69998 96.3 5.99998 94.8C5.99998 94.8 5.69998 94 5.39998 93.2C3.99998 88 5.89998 84.1 5.99998 83.8C6.19998 83.6 5.79998 83.4 5.79998 83.4C3.99998 82.8 3.49998 85 3.49998 85C2.89998 87.5 3.59998 90.6 3.79998 91.4C4.09998 92.6 4.49998 93.7 4.89998 94.7C5.69998 96.4 6.69998 97.9 7.79998 99.1C9.99998 101.3 12.9 102.8 16.1 103.2C19 103.6 22.1 103.1 24.6 101.7C27.3 100.3 29.3 98.1 30.4 95.3C30.7 94.4 31 93.5 31.2 92.7C31.2 92.7 31.4 91.6 31.5 90.8C32.7 80.5 26.5 72.8 18.8 68.5C17.6 67.9 16.5 67.3 15.4 66.8C15.9 65.8 17.1 64.4 19.8 65.2C24.1 66.5 33.8 70.2 39.6 65.3C40.3 64.7 40.9 64 41.3 63.3C41.4 63.1 41.5 62.9 41.6 62.7C41.8 62.3 42 61.8 42.1 61.2C42.3 60.2 42.2 59.2 41.8 58.3C41.7 58 41.5 57.7 41.3 57.5C41.3 57.5 41.5 57.2 41.7 56.6C42.1 55.3 44.5 52.3 45.8 50.3C47.5 47.6 48.8 46.3 50.7 43.8C52.9 41 54.9 41.1 56.3 41.4C56.7 41.5 56.9 41.6 57.2 41.8C58 42.6 57.7 43.8 57.2 44.2C57.1 44.3 57 44.4 56.9 44.5C56.5 44.9 56.1 45.3 56.5 45.8C56.9 46.3 57.3 46.3 57.6 46.1C57.6 46.1 57.9 46 58.1 45.8C59 44.9 59.1 44 59 43.4C58.9 42.8 58.7 42.3 58.6 42.2ZM38 57.8C37.3 57.4 37.4 56.9 37.4 56.9C37.5 56.5 37.6 56.5 37.7 56.5C38 56.4 38.4 56.6 38.6 56.6C39.2 56.9 39.6 57.2 40 57.6C39.3 58.3 38.4 58 38 57.8ZM2.29998 62.6C1.29998 62.2 0.999984 61.8 0.999984 61.5C0.999984 61.4 0.999984 61.3 1.09998 61.2C1.29998 61 1.89998 60.8 2.79998 61.1C3.29998 61.2 3.99998 61.5 4.89998 62.3C5.19998 62.6 5.59998 63 5.89998 63.4C3.79998 63 2.59998 62.7 2.29998 62.6Z" fill="white"/>
<path d="M18.7 54.3C19.1 54.6 20.1 54.9 21.2 54.3C21.4 54.6 21.7 54.9 22 55.3C23.4 57.2 24.7 59.2 24.7 59.2C24.8 59.5 25.1 59.5 25.3 59.4C25.4 59.3 25.5 59.3 25.5 59.2C25.6 59 25.6 58.9 25.5 58.7C25.5 58.7 24.3 56.6 22.8 54.7C22.6 54.4 22.3 54.2 22.2 53.9C22.4 53.8 22.6 53.7 23 53.6C23.6 53.4 24.2 53.3 24.7 54.1C25.4 55 26.3 56.3 26.3 56.3C27.2 57.5 30.3 61.6 32.5 61.3C34.5 61 34.5 58.9 34.5 58.8C34.5 58.4 34.4 57.8 34.3 57.2C34.1 56.4 33.7 55.3 33.1 54.2C34.2 54.9 35.3 55.1 36.4 54.6C36.8 54.4 37.1 54.2 37.4 53.9C37.6 53.7 37.7 53.4 37.9 53C38.3 51.7 38.2 49.8 37.5 47.3C38.3 48.4 39.3 49.2 40.2 49.2C42.2 49.2 42.6 47.1 42.6 47C42.7 46.5 42.7 46 42.7 45.3C42.6 44.6 42.5 43.8 42.3 42.9C42.8 43.6 43.4 44.2 44.1 44.3C46.1 44.6 46.8 42.6 46.8 42.5C47 42.1 47 41.5 47.1 40.9C47.2 39.9 47.1 38.5 46.9 37C46.9 36.9 46.9 36.9 46.9 36.8C47.3 37.3 47.8 37.7 48.3 37.9C50.1 38.8 51.7 38.1 51.9 37.9C52 37.9 52.1 37.8 52.2 37.7C52.7 37.4 53.2 36.9 53.7 36C54.7 34.2 54.7 31.7 53.7 28.7C53 26.4 52.2 24.9 51.2 24C51.1 23.8 50.9 23.4 50.6 22.9C50 22 49.3 21.5 48.6 21.4C47.7 21.3 46.9 21.7 46.1 22.7C45.8 23.1 45.4 24.1 45.4 24.1C45 25 44.6 26.4 44.5 28.1C44.5 28.6 44.3 31.4 45.4 34.1C45.6 34.9 45.8 36 45.9 37C46.1 38.5 46.2 39.8 46.1 40.7C46.1 41 46.1 41.3 46 41.5C45.8 42.4 45.4 42.5 45.4 42.5C44.6 42.9 43.5 39.6 42.5 36.5C41.6 33.9 38.5 23.1 38.5 22.9C37.9 20.5 36 20.2 35 20.2C34.7 20.2 34.6 20.5 34.6 20.8C35.5 23.1 39.1 35.5 39.3 36.2C39.5 36.9 40.2 39.1 40.9 41.6C41.3 43 41.6 44.3 41.7 45.2C41.7 45.5 41.7 45.8 41.7 46C41.7 46.9 41.3 47.1 41.3 47.1C40.1 47.9 35.6 37.5 35.4 37C34.5 34.5 32.6 34.6 31.6 34.9C31.3 35 31.2 35.3 31.3 35.5C31.5 35.9 31.8 36.5 32.1 37.1C31.6 36.9 31.1 36.8 30.6 36.9C29.6 37.1 28.9 38 28.4 39.6C27.8 41.5 27.9 44.3 28.7 47.1C28.9 47.7 29.3 49 29.4 49.1C29.4 49.1 29.7 49.9 30.3 50.8C30.8 51.6 31.3 52.6 31.8 53.7C32.5 55.1 32.9 56.2 33.2 57.1C33.3 57.4 33.3 57.7 33.4 57.9C33.5 58.8 33.2 59.1 33.2 59.1C32.6 59.6 30.3 56.3 28.4 53.8C28.4 53.8 27.2 52 25.8 51.6C25.4 51.5 24.4 51.4 23.4 51.9C22.8 52.2 22.4 52.4 22 52.6C21.8 52.7 21.3 52.8 21.3 52.8C19.4 50.6 18.5 50.6 17.9 50.8C17.5 50.9 17.2 51.3 17.1 51.7C17.4 52.9 17.9 53.8 18.7 54.3ZM47.6 24.9C47.9 22.8 48.5 22.6 48.6 22.6C48.6 22.6 48.6 22.6 48.7 22.6C49.2 22.7 49.6 23.1 49.9 23.5C49 23.4 48.5 23.7 48.4 23.8C48.2 23.9 48.1 24.2 48.3 24.4C48.4 24.6 48.7 24.7 49 24.6C49 24.6 49.5 24.3 50.1 24.5C50.9 24.8 52.1 25.9 53.1 29.3C53.7 31.2 54.1 33.8 53.2 35.7C52.9 36.3 52.5 36.7 52.2 37C51.2 37.7 50.2 37.4 49.4 36.4C48.9 35.9 48.5 35 48.3 34.1C48.3 33.9 47.1 29.8 47.6 24.9ZM30.8 38.3C31.9 37.4 33.6 39.9 33.9 40.4C34.4 41.5 34.8 42.5 35.1 43C35.1 43 35.4 43.8 35.6 44.3C35.8 44.8 36 45.4 36.2 46.1C37.2 49 37.4 51.3 37 52.5C36.9 52.9 36.7 53.1 36.4 53.3C36.1 53.6 35.7 53.5 35.3 53.3C33.2 52.3 31.4 45.9 31.4 45.9C30.9 44.1 30.6 42.8 30.5 41.8C30.2 38.8 30.8 38.3 30.8 38.3ZM18.4 52.1C18.5 52 18.4 52 18.4 52.1C18.5 52.1 18.9 52 19.8 52.8C20 53 20.3 53.3 20.5 53.6C20 53.8 19.5 53.8 19.1 53.5C18.5 53.2 18.3 52.5 18.3 52.2C18.4 52.1 18.4 52.1 18.4 52.1Z" fill="white"/>
<path d="M28.5 36.1C28.7 36.6 29.4 36 29.4 36C31.7 34 31 31.5 30.3 31.4C29.2 31.3 29 32.6 29 32.6C28.9 33.2 29.2 33.8 29.1 34.6C29 35.4 28.4 35.7 28.5 36.1Z" fill="white"/>
<path d="M96.7 5.1C99.7 5.6 101.2 3.5 100.8 2.9C100.1 2 99 2.7 99 2.7C98.4 3 98.2 3.6 97.5 4C96.9 4.5 96.3 4.2 96.1 4.5C95.8 4.9 96.7 5.1 96.7 5.1Z" fill="white"/>
<path d="M102.4 13.5C102.4 13.5 101.2 15.8 99.7 17.9C98.9 19.1 98.1 20.1 97.4 20.8C97.1 21 97 21.2 96.8 21.3C96.1 21.8 95.7 21.7 95.7 21.7C94.3 21.2 99.5 11.2 99.8 10.7C101.1 8.4 99.8 7 99 6.5C98.8 6.3 98.5 6.4 98.3 6.7C98.1 7.1 97.9 7.7 97.6 8.4C97.5 7.9 97.2 7.5 96.8 7.1C96 6.5 94.9 6.5 93.3 7.1C91.4 7.9 89.4 9.7 87.7 12.1C87.4 12.6 86.6 14 86.9 13.5C87.2 13 86.3 14.4 86 15.2C85.8 15.7 85.6 16.2 85.5 16.7C85.3 17.3 85 18 84.7 18.7C84.1 20.1 83.5 21.2 82.9 22C82.7 22.3 82.6 22.5 82.4 22.6C81.9 23.2 81.5 23.2 81.5 23.2C80.1 23.1 81.4 17.8 81.4 15.9C81.3 13.9 79.6 13.2 79 13.1C79.8 11.2 80.7 9.4 81.6 8.7C81.7 8.6 81.8 8.6 81.9 8.6C82 8.7 82.2 8.9 82 9.8C82 9.8 81.5 11.5 80.1 12.5C80.1 12.5 79.8 12.8 80.3 13C80.7 13.2 83.1 13.5 84.1 10.8C84.5 9.8 84.5 7.8 82.9 7.4C82.7 7.4 82.4 7.3 82.1 7.4C81.8 7.4 81.5 7.5 81.3 7.7C80.5 8.2 79.6 9.4 78.6 11.4C77.9 12.9 77.2 14.9 76.4 17.2C76 18.5 75.6 19.8 75.3 20.9C75.5 20 75.7 19 75.9 17.9C76.5 15.2 79.4 4.4 79.5 4.1C80.2 1.7 78.8 0.5 77.9 0.1C77.6 0 77.4 0.1 77.3 0.4C76.9 2.8 74.1 13.8 73.5 15.8C72.9 17.8 72.1 19.5 70.4 21.4L70.2 20.9C69.4 19.4 68.4 18.1 67.9 17.5C67 16.3 65.5 13.8 66.3 12.7C66.3 12.7 66.5 12.4 66.9 12.5C67.1 12.6 67.4 12.9 67.5 13.6C67.6 14.2 67.5 14.8 67.3 15.2C67.3 15.2 67 15.7 67.5 15.9C67.7 16 68 16 68.2 15.6C68.4 15.3 68.6 14.8 68.7 14.3C68.7 13.6 68.5 12.9 68.3 12.6C67.8 11.6 66.9 11.5 66.4 11.6C64.5 11.8 64.3 14.1 64.3 14.1C64.2 14.6 64.3 15.2 64.4 15.8C64.4 15.8 64.3 21.7 62.3 25C62.3 23.6 62.2 22.1 62 20.9C62 20.9 61.8 19.9 61.3 18.8C60.9 17.8 60.4 17.2 59.9 16.8C60.4 16.3 61.1 15.5 61.3 14.4C61.3 14.1 61.2 13.9 60.9 13.9C60.6 13.9 60.4 14 60.3 14.3C60.1 15.6 58.7 16.5 58.7 16.5C58.5 16.6 58.4 16.9 58.5 17.2C58.6 17.3 58.7 17.4 58.9 17.4C60.1 17.5 60.8 20.1 60.9 21C61.3 23 61.3 25.4 61 27.4C60.9 28.2 60.8 28.8 60.6 29.4C60.4 30 59.9 30.9 59.1 31C58.2 31.2 57.8 28.1 57.8 28.1C57.7 27.2 57.5 26.2 57.4 25.1C57.3 23.6 57.1 20.2 57.1 20.2C57.1 17.8 55.2 17.1 54.2 16.8C53.9 16.8 53.6 17 53.7 17.2C53.8 17.9 53.9 19.1 54 20.5C54 20.5 54.2 24 54.4 25.2C54.6 26.6 54.6 27.6 55.1 29.2C55.4 30.2 56 31.6 57.1 32.3C57.8 32.7 58.6 32.7 59.5 32.3C61.1 31.6 61.7 29.3 61.9 27.5C61.9 27.3 61.9 27.1 62 26.9C64.4 24.5 65.1 18.1 65.1 18.1C65.2 18.2 65.3 18.4 65.4 18.5C65.4 18.5 66 19.2 66.6 20.2C66.6 20.2 67.5 21.7 68 22.8C67.2 23.2 66.8 23.8 66.4 24.2C65.9 24.9 65.9 25.5 66 26C66 26 66.2 27 66.9 27.7C67.4 28.2 68 28.5 68.9 28.4C68.9 28.4 70.2 28.2 70.8 27.2C71.7 25.9 71.3 24.3 71.3 24.3C71.2 23.6 71 22.9 70.6 22.1C70.8 21.9 71 21.6 71.3 21.3C71.7 20.8 72.1 20.4 72.4 19.9C72.3 20.3 72.3 20.7 72.3 21.2C72.2 22.7 72.4 24.1 73 24.9C73.2 25.2 73.5 25.4 73.8 25.5C73.9 25.5 74.3 25.6 74.6 25.4C74.8 25.3 74.9 25.1 75 24.7C75.3 23.5 76.1 20.4 77.1 17.3C77.4 16.3 77.8 15.2 78.3 13.9C78.4 14.5 78.4 15.9 78 18.6C77.5 22.3 79.1 23.7 79.1 23.7C80.7 24.9 82.3 23.6 82.4 23.6C82.7 23.3 83.1 22.9 83.5 22.4C83.9 21.8 84.4 20.9 84.9 19.9C85.1 21 85.7 21.9 86.7 22.4C87.1 22.6 87.5 22.7 87.9 22.7C88.2 22.7 88.5 22.6 88.9 22.5C90.2 22 91.6 20.7 93.1 18.5C93 19.9 93 21.2 93.6 22C94.9 23.6 96.7 22.5 96.8 22.5C97.2 22.3 97.7 22 98.1 21.5C98.8 20.8 99.6 19.7 100.5 18.5C102 16.3 103.2 14 103.2 14C103.3 13.7 103.3 13.5 103 13.3C102.9 13.1 102.5 13.2 102.4 13.5ZM69 26.5C68.9 26.8 68.8 27.2 68.5 27.2C68.2 27.3 67.9 27 67.9 27C67.7 26.8 67.5 26.5 67.5 26.4C67.5 26.4 67 25.1 68.5 24C68.5 24 68.8 24.9 68.9 25.8C69 26 69 26.3 69 26.5ZM94.2 15.3C93.9 15.8 93.6 16.4 93.2 16.9C91.5 19.5 90 21.1 88.7 21.6C88.4 21.7 88 21.7 87.7 21.7C87.3 21.6 87.1 21.3 87 20.9C86.5 18.7 90.3 13.2 90.3 13.2C91.4 11.7 92.2 10.7 92.9 9.8C95 7.5 95.7 7.6 95.7 7.6C97.1 7.9 96.2 10.8 96 11.4C95.5 12.5 95 13.4 94.7 14C94.9 14.1 94.5 14.9 94.2 15.3Z" fill="white"/>
<path d="M140.8 24.4C141.4 23.5 141.7 22.8 141.6 22.1C142.3 22.3 143.4 22.4 144.3 21.9C144.6 21.8 144.6 21.5 144.5 21.3C144.4 21.1 144.1 21 143.9 21.1C142.7 21.7 141.1 21 141.1 21C140.9 20.9 140.6 21 140.5 21.2C140.4 21.4 140.4 21.5 140.5 21.7C141.1 22.7 139.4 24.8 138.7 25.4C137.3 26.9 135.3 28.3 133.5 29.2C132.8 29.6 132.2 29.8 131.6 30C130.9 30.2 130 30.3 129.4 29.7C128.7 29 131 26.9 131 26.9C131.7 26.3 132.4 25.6 133.2 24.9C134.3 23.9 137.1 21.9 137.1 21.9C139 20.5 138.6 18.6 138.2 17.6C138.1 17.3 137.8 17.2 137.5 17.4C137 17.9 136.1 18.7 135 19.6C135 19.6 132.2 21.8 131.4 22.6C131.2 22.8 131.1 22.9 130.9 23.1C130.3 23.5 129.5 24.1 128.7 24.6C128.7 24.6 127.5 25.4 125.8 26.1C124.5 26.7 122.6 27.1 120.9 26.7C118.6 26 118.6 23.7 120 21.9C120 21.9 120.8 20.9 122.3 19.5C124 19.9 125.8 20 127.4 19.7C129.7 19.3 130.9 18.5 131.4 18.2C132.1 17.6 132.5 17 132.6 16.4C132.7 15.7 132.3 15.1 132.2 15C131.7 14.3 130.6 13.9 129.2 13.9C129.1 13.9 128.1 13.9 126.5 14.4C125.3 14.7 123.7 15.3 122.2 16.4C122 16.5 121.4 16.9 120.7 17.5L120.6 17.6C120.3 17.9 119.9 18.3 119.5 18.7C118.8 19.4 117.9 20.2 116.9 21C115.7 21.9 114.7 22.7 113.8 23.1C113.5 23.3 113.3 23.4 113.1 23.5C112.2 23.8 111.9 23.6 111.9 23.6C111.2 23.1 113.4 20.4 115.5 18C117.2 15.9 124.8 7.6 125 7.4C126.8 5.6 126 3.9 125.4 3.1C125.2 2.9 124.9 2.9 124.7 3.1C123.1 5.3 115.7 13.1 113.2 16.2C112.2 17.4 108.9 21.3 109.7 23.4C110.5 25.3 112.6 24.8 112.6 24.8C113 24.7 113.5 24.5 114.1 24.2C115 23.7 116.1 23 117.3 22C117.3 22.1 117.2 22.2 117.2 22.2C116.9 23 116.8 23.7 117 24.4C117.2 25.7 118.1 26.5 118.8 27C119.4 27.4 119.9 27.6 119.9 27.6C121.6 28.2 123.7 28.1 126.1 27.2C126.8 26.9 127.4 26.6 127.9 26.3C127.4 27.1 126.9 28.1 127 29C127.1 29.8 127.6 30.5 128.4 31C129.8 31.8 132.1 31.1 133.7 30.2C135.6 29.2 137.7 27.8 139.1 26.2C139.5 26.1 140.2 25.4 140.8 24.4ZM127.8 16.1C130.7 14.8 131.4 15.3 131.4 15.3C132 15.6 131.6 16.7 131.1 17.2C131.1 17.2 130.7 17.5 130 17.9C129.3 18.2 128.3 18.5 127.4 18.6C126.4 18.7 125 18.8 123.4 18.5C124.7 17.8 126.1 16.8 127.8 16.1Z" fill="white"/>
<path d="M189.6 82.3C187.2 81.7 175.5 77.9 174.2 77.5C172.9 77.1 171.4 76.7 168.9 75.8C167.5 75.3 166.3 74.8 165.5 74.4C165.2 74.2 165 74.1 164.8 73.9C164.1 73.4 164.1 73 164.1 73C164.2 71.6 175.2 73.8 175.8 73.9C178.3 74.6 179.4 72.9 179.7 72C179.8 71.7 179.6 71.5 179.3 71.4C177.6 71.2 173.5 70.5 171.5 70.2C168.1 69.6 165.4 68.7 163.8 67.9C163.2 67.5 162.4 67 162.4 66.3C162.4 65.4 165.6 65.7 165.6 65.7C166.5 65.8 167.6 65.9 168.7 66C170.2 66.2 173.8 66.9 173.8 66.9C176.2 67.5 177.3 65.9 177.7 65C177.8 64.7 177.6 64.4 177.3 64.4C176.6 64.3 175.3 64.2 173.8 63.9C173.8 63.9 172.1 63.6 170.2 63.3C168.3 63 167.2 63 164.7 62.6C163.2 62.4 162 62.2 161.1 61.8C160.8 61.7 160.5 61.6 160.3 61.5C159.5 61.1 159.5 60.7 159.5 60.7C159.4 59.9 162.9 59.6 166.1 59.4C168.9 59.2 182 59.2 182.3 59.2C184.8 59.3 185.6 57.5 185.7 56.6C185.7 56.3 185.5 56.1 185.2 56.1C183.5 56.3 177.3 56.3 172.3 56.4C172.7 56.1 173 55.6 173.1 55.1C173.3 54.1 172.7 53.1 171.5 52C170 50.7 167.4 49.7 164.5 49.3C164 49.2 163.6 49.2 162.9 49.2C162.3 49.2 159.9 49.3 157.3 49.5C155.8 49.6 154.5 49.6 153.6 49.5C153.3 49.5 153 49.4 152.8 49.4C151.9 49.2 151.8 48.7 151.8 48.7C151.5 47.9 155.4 46.8 158.7 46.1C158.7 46.1 162.8 45.1 163.5 45C164.4 44.8 166.3 43.9 165.9 42.2C165.9 41.9 165.7 41.6 165.6 41.4C165.5 41.2 165.2 41 165 40.8C164.2 40.3 162.7 40.1 160.5 40.1C158.8 40.2 156.7 40.4 154.3 40.8C153 41 151.7 41.2 150.5 41.5C151.4 41.2 152.4 41 153.5 40.7C155 40.3 158.5 39.7 158.5 39.7C160.9 39.3 161.4 37.4 161.3 36.4C161.3 36.1 161 35.9 160.7 36C160 36.2 158.8 36.5 157.3 36.8C157.3 36.8 155.3 37.3 153.7 37.6C152.1 38 150.8 38.4 148.3 39C146.8 39.4 145.6 39.6 144.6 39.7C144.3 39.7 144 39.7 143.8 39.7C142.9 39.7 142.7 39.3 142.7 39.3C142 38.1 152.4 33.9 153 33.7C155.5 32.8 155.4 30.9 155.2 30C155.1 29.7 154.8 29.6 154.6 29.7C154.2 29.9 153.6 30.2 153 30.5C153.2 30 153.3 29.5 153.2 29C153 28 152.1 27.3 150.6 26.7C148.7 26.1 146 26.1 143.1 26.8C140.3 27.5 137.9 28.7 136.6 30.2C135.4 31.5 135.1 32.8 135.7 34.1C135.9 34.5 136.1 34.8 136.4 35.1C136.6 35.3 136.9 35.4 137.3 35.6C138.6 36.1 140.5 36 143 35.4C141.9 36.2 141.1 37.2 141 38.1C140.9 40.1 143 40.6 143.1 40.6C143.5 40.7 144.1 40.8 144.8 40.7C145.3 40.7 145.9 40.6 146.6 40.5C146.2 40.8 145.9 41.2 145.7 41.5C145.5 41.9 145.5 42.2 145.5 42.5C145.5 42.6 145.6 42.9 145.9 43.2C146.1 43.3 146.4 43.4 146.7 43.3C147.9 43 151.1 42.3 154.3 41.8C157.3 41.3 162.2 40.7 164.1 41.6C164.2 41.6 164.2 41.7 164.2 41.8C164.2 42.1 163.8 42.2 163.3 42.3C162.6 42.4 157.2 43.5 157.2 43.5C155.8 43.9 150.7 45.2 150.2 47.3C149.7 49.2 151.7 50.1 151.8 50.1C152.2 50.3 152.7 50.4 153.4 50.5C154.2 50.6 155.2 50.6 156.4 50.6C155.3 51.3 154.8 52.3 154.8 53.4C154.8 53.8 154.9 54.2 155.1 54.6C155.2 54.9 155.5 55.1 155.7 55.4C156.7 56.3 158.5 57 161.1 57.4C159.8 57.7 158.6 58.3 158.2 59.1C157.3 60.9 159.1 62.1 159.2 62.2C159.5 62.5 160.1 62.7 160.7 62.9C161.2 63.1 161.8 63.2 162.5 63.4C162 63.6 161.6 63.9 161.3 64.2C160.8 64.8 160.7 65.6 161 66.5C161.4 67.8 162.9 68.8 165.6 69.8C165.8 69.8 166 69.9 166.2 70C164.9 70.1 163.9 70.4 163.3 71.1C162.1 72.8 163.6 74.3 163.7 74.3C164 74.7 164.5 75 165 75.3C165.6 75.6 166.3 76 167.2 76.3C166.3 76.3 165.6 76.5 165.1 77C163.7 78.5 165 80.2 165 80.3C165.2 80.7 165.6 81 166.2 81.5C167 82.1 168.1 82.8 169.5 83.6C169.5 83.6 169.6 83.6 169.6 83.7C169.5 83.7 169.4 83.7 169.3 83.7C168.5 83.8 167.8 84 167.2 84.4C166.1 85.1 165.7 86.3 165.5 87.1C165.3 87.9 165.4 88.4 165.4 88.4C165.5 90.2 166.5 92.1 168.2 93.9C169.5 95.2 170.8 96 170.9 96C172.8 97.3 174.6 98.2 174.6 98.2C174.9 98.3 175.1 98.2 175.3 98C175.4 97.8 175.3 97.5 175.1 97.3C175.1 97.3 173.3 96.4 171.5 95.1C171.5 95.1 170.3 94.3 169 93C168 92 166.8 90.5 166.5 88.8C166.2 86.4 168.3 85.5 170.6 86.1C170.6 86.1 171.9 86.4 173.7 87.3C174 89.1 174.7 90.7 175.5 92.1C176.7 94 178 94.9 178.5 95.2C179.3 95.6 180 95.7 180.7 95.5C181.4 95.3 181.7 94.7 181.8 94.6C182.2 93.8 182.2 92.7 181.6 91.4C181.6 91.4 181.1 90.4 180.1 89.1C179.3 88.2 178.2 86.9 176.5 85.9C176.4 85.8 175.8 85.4 175 85C174.2 84.6 172.4 83.8 170 82.7C168.6 82 167.6 81.3 166.8 80.8C166.6 80.6 166.3 80.4 166.2 80.3C165.6 79.6 165.7 79.3 165.7 79.3C165.8 78.5 169.2 79.4 172.3 80.3C174.9 81 185.6 84.6 185.8 84.7C188.2 85.6 189.5 84.2 189.9 83.3C190 82.7 189.9 82.4 189.6 82.3ZM137.4 34.6C137 34.5 136.8 34.3 136.6 34C136.4 33.7 136.4 33.3 136.6 32.9C137.7 30.9 144.1 29.2 144.1 29.2C145.9 28.8 147.2 28.5 148.3 28.4C151.4 28 151.9 28.6 151.9 28.6C152.8 29.7 150.2 31.3 149.7 31.7C148.6 32.1 147.6 32.6 147 32.8C147 32.8 146.2 33.1 145.7 33.3C145.2 33.5 144.6 33.7 143.9 33.9C140.9 34.9 138.7 35.1 137.4 34.6ZM156.3 54.6C156 54.4 155.9 54.1 155.8 53.8C155.7 53.4 155.8 53 156.2 52.7C158 51.2 164.6 52.1 164.6 52.1C166.4 52.4 167.7 52.7 168.8 52.9C171.8 53.7 172 54.5 172 54.5C172.3 55.7 169.8 56.3 168.9 56.4C167.6 56.4 166.5 56.5 165.8 56.5C165.8 56.5 165.2 56.5 164.8 56.5C164.2 56.5 163.4 56.4 162.6 56.3C159.4 56.1 157.3 55.5 156.3 54.6ZM178.7 90.6C181 92.8 180.8 93.6 180.8 93.6C180.7 94.3 179.6 94.4 179 94.1C179 94.1 178.6 93.9 177.9 93.4C177.3 92.8 176.7 92.1 176.2 91.3C175.7 90.5 175.1 89.2 174.7 87.6C176 88.3 177.4 89.3 178.7 90.6Z" fill="white"/>
<path d="M63.1 151L61.4 150V141.6C61.4 141.5 61.4 141.3 61.4 141C61.4 140.9 61.4 140.7 61.4 140.4L57.2 147.5L55.8 146.7L61.6 137L63.5 138.1V145.9C63.5 146 63.5 146.4 63.5 147.3L67.5 140.5L68.9 141.3L63.1 151Z" fill="white"/>
<path d="M71 154.6C69.6 154.1 68.7 153.1 68.3 151.8C67.9 150.4 68 149 68.6 147.4C69.2 145.9 70.1 144.7 71.3 144C72.5 143.3 73.8 143.2 75.2 143.7C76.6 144.2 77.5 145.2 77.9 146.5C78.3 147.8 78.2 149.3 77.6 150.8C77 152.4 76.1 153.6 74.8 154.3C73.6 155 72.3 155.1 71 154.6ZM71.6 153.1C72.3 153.4 73 153.3 73.7 152.9C74.4 152.5 75 151.6 75.6 150.1C76.1 148.9 76.2 147.9 76.1 147C76 146.2 75.5 145.6 74.7 145.3C73.1 144.7 71.8 145.7 70.7 148.3C70.2 149.6 70.1 150.6 70.2 151.4C70.3 152.2 70.8 152.8 71.6 153.1Z" fill="white"/>
<path d="M83.3 158L81.2 157.5L80.2 145.7L82.3 146.2L83 155.2L87.4 147.3L89.1 147.6L83.3 158Z" fill="white"/>
<path d="M94.4 159.3L92.2 159.2L92.5 154.4L89.1 147.6L91.6 147.8L94 152.6L96.9 148.1L98.8 148.2L94.7 154.5L94.4 159.3ZM96.4 144.5L96.9 145.8L93.4 147L93.1 146.1L96.4 144.5Z" fill="white"/>
<path d="M115.4 157.6L113.1 158L109.8 152.7L108.1 155.9L108.6 158.7L106.6 159L104.8 147.8L106.8 147.5L107.8 153.4C108 153 108.1 152.7 108.2 152.5L111.1 146.9L113.1 146.6L111 150.7L115.4 157.6Z" fill="white"/>
<path d="M126.9 154L125 154.6L118.6 149.1C118.5 149 118.3 148.9 118.1 148.7C118 148.6 117.9 148.5 117.6 148.3L120.3 156.1L118.7 156.6L115 145.9L117.1 145.2L123 150.2C123.1 150.2 123.4 150.6 124.1 151.1L121.6 143.6L123.1 143.1L126.9 154Z" fill="white"/>
<path d="M127 137.3L128 138.2L125.5 141L124.8 140.4L127 137.3ZM132.5 151.3L130.7 152.2L125.7 142L127.5 141.1L132.5 151.3Z" fill="white"/>
<path d="M143.4 144.7L141.7 145.8L134.1 142.1C134 142 133.8 142 133.5 141.8C133.4 141.7 133.2 141.7 133 141.5L137.5 148.4L136.1 149.3L129.9 139.8L131.8 138.6L138.8 142C138.9 142 139.3 142.2 140.1 142.6L135.8 136L137.1 135.1L143.4 144.7Z" fill="white"/>
<path d="M155.2 95.9C155 95.7 154.7 95.6 154.5 95.7C154.1 95.8 154.1 95.6 154.2 95.3C154.3 95.1 154.3 94.9 154.4 94.7C154.4 94.6 154.4 94.4 154.3 94.3C154.1 94.2 154 94.2 153.8 94.2C153.5 94.4 153.2 94.5 153 94.9C152.9 95 152.9 95.1 152.7 94.9C152.5 94.6 152.3 94.7 152 94.8C151.9 94.8 151.9 94.9 151.9 94.9C151.7 95.7 151 96.1 150.5 96.6C150.4 96.7 150.4 96.8 150.3 97C150.2 97.3 150.1 97.6 149.7 97.7C149.2 97.8 149.1 98.3 148.8 98.7C148.6 98.5 148.4 98.5 148.1 98.6C147.6 98.9 147.3 99.2 147.1 99.8C147.1 99.9 147 100 146.9 100C146.5 100 146.2 100.2 146.1 100.6C146.1 100.7 146 100.8 145.9 100.8C145.8 100.8 145.6 100.8 145.5 100.9C144.9 101.5 144 101.7 143.6 102.4C143.2 103 142.7 103.6 143 104.4C143 104.5 143 104.5 143 104.5C142.9 104.5 142.8 104.6 142.7 104.6C142.6 104.6 142.6 104.5 142.7 104.4C142.8 104 142.6 103.8 142.3 103.7C142 103.6 141.7 103.7 141.5 104C141.2 104.4 141 105 140.9 105.5C140.9 105.8 140.6 105.7 140.5 105.8C140.3 105.9 140.4 105.6 140.3 105.5C140.1 105.1 139.8 105 139.4 105.2C138.6 105.8 138.4 106.9 138.6 107.6C138.7 108 138.7 108 138.4 108.3C138.3 108.3 138.3 108.1 138.3 108.1C138 107.6 137.4 107.6 137 108.1C136.8 108.3 136.7 108.6 136.6 108.8C136.4 109.2 136.3 109.7 135.9 110C135.4 110.6 135.2 111.4 135.2 112.3C135.2 112.6 135.1 112.7 134.9 112.8C133.9 113.4 132.9 114.1 131.8 114.7C130.6 115.4 129.4 116.2 128.2 116.9C128.1 116.6 128.4 116.4 128.5 116.2C129.1 115.5 129.4 114.6 130 114C130.6 113.3 130.9 112.3 131.4 111.6C131.6 111.3 131.7 110.8 132 110.5C132.1 110.4 132.1 110.3 132 110.2C131.9 110.1 131.8 110.1 131.7 110.2C131.3 110.3 131.1 110.6 130.8 110.7C130.7 110.8 130.7 110.9 130.6 110.9C130.5 111 130.5 111.1 130.4 111.1C130.3 111.2 130.3 111.3 130.1 111.3C129.7 111.7 129.3 112.1 129 112.4C128.4 113.1 127.9 113.7 127.4 114.4C127 114.9 126.6 115.5 126.4 116.1C126 117.1 125.6 118.1 125.1 119C125 119.2 124.9 119.3 124.7 119.4C123.4 120.2 122.1 120.8 120.8 121.5C119.1 122.4 117.3 123.2 115.5 123.9C118 122.4 120.4 120.7 122.5 118.8C123.9 117.6 125.2 116.4 126.3 115C127.1 114 127.8 113.1 128.5 112.1C128.9 111.8 128.9 111.3 129.3 111.1C129.2 111 129.3 111 129.4 111C129.4 111 129.4 111 129.4 110.9V110.8C129.4 110.8 129.4 110.8 129.5 110.8C129.6 110.6 129.6 110.4 129.9 110.3C129.9 110.3 129.9 110.3 129.9 110.2H130C130.3 109.7 130.6 109.2 130.9 108.7C130.9 108.6 130.9 108.6 131 108.6C131.6 107.7 132.1 106.7 132.7 105.8C133.1 105.3 133.4 104.7 133.7 104.2C134.1 103.5 134.4 102.8 134.7 102.1C135.3 100.8 135.9 99.5 136.3 98.2C136.6 97.2 137 96.2 137.2 95.1C137.4 93.9 137.8 92.8 138 91.6C138.3 90.2 138.9 89 139.9 88.1C140.3 87.7 140.7 87.1 141 86.6C141.5 85.9 141.9 85.3 142.4 84.6C143 83.6 143.6 82.6 144.1 81.5C144.2 81.2 144.4 81.1 144.7 81.1C144.9 81.1 145.2 81.1 145.4 81C145.5 80.9 145.6 81 145.7 81C146.6 81.6 147.6 81.3 148.5 80.9C148.8 80.8 149 80.7 149.2 80.5C149.6 80.1 149.6 79.5 149.3 79.2C149.3 79.2 149.3 79.1 149.2 79.1C148.8 79.1 148.7 78.9 148.9 78.5C149 78.3 149 78 149.3 77.9C150 77.6 150.4 77 150.9 76.4C151 76.3 151 76.1 150.9 76C150.6 75.8 150.7 75.7 150.8 75.5C151.3 74.7 151.4 73.8 151.4 72.8C151.4 72.6 151.3 72.4 151 72.4C150.7 72.5 150.8 72.3 150.8 72.1C150.8 71.9 150.9 71.7 150.9 71.5C150.9 71.1 150.7 71 150.4 71.1C150.2 71.2 150.1 71.4 149.8 71.4V71.3C149.9 71.1 150 70.8 149.8 70.6C149.6 70.4 149.2 70.5 149 70.6C148.2 70.9 147.7 71.5 147.3 72.2C147.2 72.4 147.1 72.5 146.9 72.4C146.7 72.3 146.5 72.5 146.4 72.6C145.7 73.2 145.4 74 145.3 74.8C145.3 75.1 145.1 75.3 144.9 75.5C144.7 75.7 144.5 75.8 144.2 75.7C143.8 75.6 143.1 76.3 143.1 76.9C143.1 77.7 143.3 78.5 143.6 79.3C143.8 79.9 144 80.5 143.6 81.1C143.4 81.4 143.2 81.8 143 82.2C142.4 83.2 141.9 84.2 141.3 85.1C140.7 86.1 139.9 86.8 139 87.6C139.2 86.4 139.3 85.2 139.3 84.1C139.3 82.8 139.5 81.5 139.5 80.2C139.4 78.3 139.4 76.5 139.2 74.6C139.1 72.5 138.7 70.5 138.3 68.5C138.2 67.9 138.1 67.4 138 66.8C138 66.7 137.9 66.6 138.1 66.5C138.6 66.3 138.6 65.7 138.8 65.3C139.1 64.3 139.6 63.5 140.3 62.7C141 61.9 140.7 61 139.7 60.7C139.4 60.6 139.1 60.7 138.9 60.9C138.8 61 138.7 61.1 138.6 61C138.4 60.9 138.5 60.8 138.6 60.7C139.1 60 139.1 59.3 139 58.5C138.9 57.9 138.4 57.6 137.9 57.9C137.8 57.9 137.7 58 137.7 58C137.5 58.3 137.2 58.5 136.8 58.4C136.7 58.4 136.7 58.5 136.6 58.5C136.4 58.5 136.4 58.8 136.2 58.7C136 58.5 136.2 58.3 136.3 58.2C136.6 57.3 136.6 56.3 136.9 55.4C137 55.1 137 54.7 136.7 54.5C136.3 54.2 135.9 54.5 135.6 54.8C135.5 54.5 135.5 54.1 135.3 53.8C135 53.2 134.8 53.1 134.2 53.3C134 53.4 133.9 53.4 134 53.1C134.1 53 134 52.8 134 52.6C134 52.3 133.8 52.2 133.6 52.3C133.3 52.4 133.3 52.2 133.4 52.1C133.5 51.6 133.4 51.1 133 50.7C132.9 50.6 132.9 50.6 133 50.5C133.1 49.9 132.5 49.3 131.8 49.6C131.8 49.3 131.9 48.9 131.5 48.7C131 48.4 130.7 48.9 130.2 49.1C130.3 48.6 129.9 48.2 130 47.8L129.9 47.7C129.7 47.6 129.7 47.5 129.7 47.3C129.8 46.8 129.6 46.4 129.3 46C129.2 45.8 129 45.7 128.8 45.7C128.5 45.7 128.4 45.5 128.3 45.3C128.2 44.9 128 44.8 127.6 44.7C127.3 44.6 127 44.8 126.9 45.1C126.8 45.3 126.8 45.3 126.6 45.2C125.9 44.9 125.9 44.9 125.6 45.5C125.5 45.6 125.4 45.6 125.3 45.6C124.8 45.7 124.6 46.1 124.9 46.5C125.3 47 125.8 47.3 126.4 47.4C126.6 47.4 126.7 47.6 126.7 47.6C126.7 47.7 126.6 47.7 126.5 47.7C125.9 47.7 125.7 48.1 126 48.6C126.3 49.2 126.9 49.5 127.5 49.6C127.6 49.6 127.7 49.6 127.7 49.7C127.7 50 128 50.2 128.3 50.3C128.4 50.3 128.5 50.4 128.5 50.5C128.5 50.6 128.3 50.6 128.3 50.6C127.8 50.8 127.5 51.1 127.6 51.5C127.6 51.9 128 52.3 128.4 52.3C128.7 52.4 129.1 52.6 129.4 52.5C129.5 52.5 129.5 52.5 129.5 52.6C129.5 52.7 129.5 52.7 129.4 52.7C129.1 52.8 128.7 53 128.9 53.5C129 53.9 129.3 54.3 129.9 54.4C130.2 54.4 130.5 54.6 130.8 54.7C131 54.8 130.9 55.2 131.1 55.5C130.6 55.5 130.2 55.6 130.1 56.1C130 56.6 130.3 56.9 130.7 57.2C130.9 57.4 131.1 57.5 131 57.8C131 58.2 131.2 58.5 131.5 58.7C131.7 58.8 131.9 58.9 132.1 59C132.4 59.1 132.7 59.3 132.4 59.7C132.2 59.9 132.4 60.3 132.7 60.6C132.3 60.8 131.9 60.9 131.9 61.4C131.9 61.7 132 62.1 132.3 62.3C132.6 62.5 133 62.7 133.4 62.7C133.5 62.7 133.6 62.7 133.7 62.8C133.8 62.9 134 62.7 134 63C134 63.3 133.8 63.1 133.6 63.1C133.1 63.3 132.8 63.7 132.7 64.2C132.6 64.7 132.9 65 133.3 65.2C133.8 65.5 134.4 65.6 135 65.7C135.5 65.6 135.8 66 136.2 66.2C136.4 66.3 136.6 66.4 136.8 66.5C136.9 66.5 137 66.6 137.1 66.6C137.5 66.5 137.6 66.8 137.7 67.2C137.8 67.4 137.8 67.6 137.8 67.9C137.9 68 137.9 68.2 137.9 68.3C138 68.5 138.1 68.7 138 69C138.1 69.6 138.2 70.3 138.3 70.9C138.4 71.4 138.5 71.9 138.5 72.4C138.5 72.6 138.5 72.8 138.6 73C138.6 73.2 138.7 73.5 138.7 73.7C138.7 73.8 138.7 73.9 138.7 74C138.8 74.5 138.9 74.9 138.8 75.4C138.9 75.6 138.9 75.8 138.8 76C138.8 76.8 138.9 77.6 138.9 78.4C139 78.6 139 78.7 138.9 78.9C138.9 79.2 138.9 79.4 138.9 79.7C138.9 80.1 138.9 80.4 138.8 80.8C138.8 81 138.8 81.2 138.8 81.5C138.8 81.7 138.8 82 138.8 82.2C138.8 82.3 138.8 82.4 138.7 82.6C138.7 82.8 138.7 83 138.6 83.2C138.6 83.3 138.6 83.5 138.6 83.6C138.6 83.8 138.6 84 138.6 84.2C138.6 84.5 138.5 84.9 138.5 85.2C138.5 85.6 138.4 85.9 138.3 86.3C138.4 86.4 138.3 86.5 138.3 86.7C138.2 87.1 138.2 87.5 138.1 87.9C138.2 88.1 138 88.1 138 88.3C138.1 88.5 137.9 88.6 137.9 88.8C137.9 89 137.8 89.2 137.7 89.4C137.6 89.8 137.6 90.3 137.5 90.8C137.4 91.3 137.3 91.9 137.2 92.4C137.1 92.7 137.1 93 137 93.2C137.1 93.3 137 93.4 136.9 93.5C136.9 93.6 136.9 93.7 136.8 93.8C136.7 94 136.7 94.3 136.6 94.5C136.4 95 136.3 95.6 136.1 96.1C136.1 96.2 136 96.3 136 96.3C136 96.4 136 96.5 135.9 96.5C135.8 96.9 135.7 97.3 135.5 97.7C135.3 98.1 135.2 98.5 135 98.9C134.8 99.3 134.8 99.7 134.4 100.1C134.7 98.5 134.9 97 135.2 95.6C135.2 95.3 135.3 95.1 135.3 94.8C135.3 94.4 135.4 93.9 135.5 93.5C135.5 93.3 135.5 93 135.6 92.8C135.6 92.3 135.7 91.8 135.9 91.3C135.9 91 136 90.7 136.1 90.4C136 90.3 136.2 90.1 136.2 90C136.2 89.9 136.3 89.8 136.3 89.7C136.3 89.6 136.3 89.4 136.4 89.3C136.4 89 136.5 88.7 136.5 88.4C136.5 88.3 136.5 88.1 136.6 88C136.6 87.9 136.6 87.9 136.7 87.8C136.7 87.6 136.7 87.4 136.8 87.2C136.9 86.8 136.9 86.3 137 85.9C137 85.6 137 85.3 137.1 85.1C137 84.9 137.1 84.8 137.1 84.6C137.1 84.2 137.1 83.8 137.2 83.5C137.2 83.4 137.2 83.3 137.2 83.3C137.2 83.1 137.2 82.8 137.2 82.6C137.2 82.1 137.1 81.7 136.9 81.2C136.8 80.9 136.6 80.6 136.3 80.6C135.9 80.5 135.7 80.8 135.6 81.1C134.9 82.2 134.7 83.5 134.6 84.8C134.4 86.2 134.3 87.6 134.2 89C134 90.3 134.1 91.6 134 92.9C133.9 93.7 133.8 94.4 133.8 95.2C133.7 96.7 134.2 98.1 134.4 99.5C134.5 100 134.6 100.4 134.6 100.9C134.7 101.5 134.3 102 134.1 102.4C133.4 103.9 132.6 105.3 131.8 106.7C131.3 107.5 130.8 108.3 130.2 109.1C129.7 109.8 129.3 110.4 128.8 111.1C127.9 112.3 127.1 113.6 126.1 114.7C125.2 115.7 124.1 116.6 123.1 117.6C120.8 120.1 117.9 121.9 114.9 123.5C113 124.6 110.9 125.5 108.8 126.3C107.4 126.8 106.1 127.4 104.7 127.9C104.4 128 104.1 128.1 103.8 128.2L104.2 128.5C104.4 128.4 104.6 128.4 104.8 128.3L104.9 128.4C105.2 128.3 105.6 128.2 105.9 128.1C106 128.1 106 128.1 106.1 128C106.6 127.9 107.1 127.7 107.6 127.6C108.5 127.3 109.5 127 110.4 126.7C110.9 126.5 111.5 126.4 112 126.1C112.1 126.1 112.2 126.1 112.2 126.1C112.6 126.4 113.1 126.5 113.6 126.6C114.9 127 116.2 127.3 117.6 127.5C119.1 127.7 120.6 127.9 122.1 127.7C122.8 127.6 123.4 127.5 124.1 127.4C124.8 127.3 125.4 127.2 126 127C127.5 126.6 129.1 126.2 130.6 125.5C131.5 125.1 132.5 124.9 133.5 124.5C134.3 124.2 135.1 123.9 135.9 123.7C136.2 123.6 136.6 123.5 136.9 123.5C137.1 123.5 137.3 123.5 137.4 123.3C137.4 123 137.2 123 137 123C134.9 122.7 132.8 122.4 130.8 123C128.9 123.5 127 124.1 125.1 124.7C122.4 125.6 119.6 126.1 116.8 126C116.1 126 115.3 126.1 114.6 126C114.1 125.9 113.6 125.8 113 125.7C113.4 125.3 113.8 125.3 114.2 125.1C115.4 124.6 116.6 124 117.7 123.5C119 122.9 120.2 122.3 121.5 121.6C123.1 120.8 124.7 119.9 126.3 119.1C127.5 118.4 128.7 117.6 129.9 116.8C130.9 116.1 132 115.5 133 114.7C133.8 114.2 134.6 113.7 135.3 113.1C135.9 112.6 136.5 112.8 137.1 113.1C137.5 113.3 137.9 113.6 138.4 113.4C138.6 113.3 138.8 113.6 139.1 113.6C139.6 113.7 140 113.9 140.5 113.7C141.1 113.5 141.3 113 140.9 112.4C140.8 112.2 140.7 112 140.9 111.8C141.2 111.5 140.9 111.2 140.8 110.8C140.8 110.7 140.6 110.6 140.8 110.5C140.9 110.4 141 110.5 141.1 110.6C142.1 111.4 143.1 111.2 144.1 110.9C144.3 110.8 144.4 110.5 144.2 110.3C144 110.1 143.9 110 143.6 109.9C143.4 109.8 143.2 109.7 143.5 109.5C143.7 108.6 144.5 109 145 108.9C145.3 108.9 145.6 108.8 146 108.8C146.2 108.8 146.3 108.7 146.2 108.5C146.2 108.2 146.1 108.2 145.5 107.6C145.9 107.5 146.2 107.5 146.5 107.6C147.4 107.7 148.7 107 148.7 105.7C148.7 105.3 148.4 105.2 148.2 105.1C147.9 105.1 147.6 105.2 147.3 105.3C147.2 105.3 147.1 105.3 147.1 105.2C147.1 105.1 147 105 147.2 105C147.6 104.9 148 104.7 148.3 105C148.5 105 148.7 105 148.9 105C149.1 105 149.3 105 149.4 104.8C149.5 104.5 149.7 104.5 150 104.5C150.9 104.5 151.2 104 151.2 103.2C151.2 103 151.2 103 151.3 102.9C151.7 102.6 152.1 102.3 152.3 101.8C152.3 101.7 152.4 101.7 152.4 101.6C152.3 101.2 152.5 101.3 152.8 101.2C153.1 101.2 153.5 101 153.7 100.8C154.1 100.5 154 100 153.5 99.6C154 99.3 154.5 99.1 154.9 98.7C155.1 98.5 155.1 98.4 155.1 98.2C155.1 98 154.9 97.9 154.7 97.9C154.4 97.9 154.4 97.7 154.4 97.4C154.5 96.9 154.8 96.8 155.2 96.6C155.5 96.4 155.7 96.2 155.9 96C155.5 96.3 155.4 96.1 155.2 95.9ZM144.1 80.3C144.1 79.7 144 79.3 144.1 78.9C144.1 78.8 144.1 78.7 144.2 78.7C144.3 78.7 144.3 78.8 144.3 78.9C144.3 79.3 144.3 79.7 144.1 80.3ZM144.4 80.6C144.8 79.9 145.6 79.6 146.2 79.8C145.7 80.4 145.1 80.7 144.4 80.6ZM145.1 78.8C145.1 78.6 145.1 78.3 145.3 78.2C145.6 77.6 146.1 77.1 146.7 76.8C146.8 76.7 146.9 76.6 147.1 76.7C147.2 76.8 147.1 76.9 147.1 77.1C147.2 78.1 146.5 78.7 145.8 79.3C145.6 79.4 145.3 79.5 145.1 79.4C145 79.2 145.1 78.9 145.1 78.8ZM148.1 78C148 78.4 148 78.7 147.9 79C147.8 79.3 147.7 79.7 147.3 79.9C147.1 80 146.7 79.9 146.7 79.9C146.7 79.6 146.5 79.5 146.3 79.4C146.8 78.8 147.4 78.3 148.1 78ZM148.9 79.5C148.8 79.9 148.7 80.2 148.4 80.4C147.8 80.7 147.2 80.8 146.4 80.7C147.2 80.3 148 79.9 148.5 79.2C148.6 79.1 148.7 79.1 148.8 79.1C148.9 79.3 148.9 79.4 148.9 79.5ZM150 76.5C149.8 77 149.4 77.4 148.9 77.5C148.4 77.6 147.9 77.7 147.3 78C147.3 77.9 147.4 77.8 147.4 77.8C147.3 77.3 147.6 77.1 148 77.1C148.4 77.1 148.8 76.9 149.1 76.7C149.3 76.6 149.4 76.5 149.4 76.3C149.3 76.1 149.5 76.1 149.6 76C149.8 76 149.9 76 150.1 76.1C150.1 76.2 150.1 76.3 150 76.5ZM147.8 76.6C147.9 76.1 148.3 75.8 148.8 76C148.9 76 149 76.1 149 76.1C149 76.2 148.9 76.2 148.9 76.2C148.5 76.5 148.2 76.6 147.8 76.6ZM150.6 73.1C151.1 73.1 150.8 73.5 150.9 73.6C151.1 74.3 150.7 74.9 150.4 75.4C150.2 75.7 149.8 75.4 149.6 75.6C149.6 75.6 149.6 75.6 149.5 75.6C149.8 75.1 150 74.5 150.1 73.6C150.1 73.2 150.2 73.1 150.6 73.1ZM150.2 71.7C150.1 72.1 150.4 72.4 150.1 72.7C150 72.3 149.7 72.4 149.4 72.4C149.7 72.2 149.9 72 150.2 71.7ZM147.5 72.6C147.9 71.8 148.4 71.3 149.4 71.4C149.4 71.7 149.2 72 149.2 72.3C149.2 72.5 149 72.7 148.8 72.7C148.3 72.9 147.8 73.1 147.4 73.5C147.2 73.2 147.4 72.9 147.5 72.6ZM149.8 72.9C149.8 73.5 149.7 74 149.5 74.6C149.2 75.5 149 75.7 148.1 75.7C148.1 75.3 148.2 74.8 147.8 74.5C147.7 74.4 147.4 74.5 147.3 74.6C147.7 73.4 148.6 73 149.8 72.9ZM147.5 74.9C147.8 75.7 147.7 75.9 146.7 76C147 75.6 147.2 75.2 147.5 74.9ZM146.9 73.3C146.9 74.2 146.6 75.1 146.2 76C146.1 75.7 146 75.4 145.7 75.3C145.6 75.3 145.6 75.2 145.6 75.2C145.5 74.3 146.1 73.5 146.9 73.3ZM145.2 76.1C145.3 76 145.5 75.8 145.6 76.1C145.7 76.5 145.8 76.9 145.5 77.2C145.2 77.6 144.9 78 144.6 78.6C144.6 78.4 144.5 78.4 144.5 78.3C144.2 77.5 144.6 76.4 145.2 76.1ZM143.6 78.6C143.1 77.3 143.3 76.9 144.3 76.3C143.9 77 144.2 77.9 143.6 78.6ZM138.8 63.6C139.1 63.1 139.1 62.5 138.9 62C138.8 61.8 139 61.7 139.1 61.5C139.2 61.4 139.4 61.3 139.5 61.4C140.1 61.8 140.2 62.5 139.8 62.9C139.5 63.2 139.2 63.6 138.9 64.1C138.9 63.9 138.7 63.9 138.8 63.6ZM137.8 58.8C137.9 58.7 138.1 58.7 138.2 58.8C138.5 59.3 138.7 59.8 138.4 60.4C138.3 60.7 138.1 61 137.9 61.4C137.8 60.8 137.8 60.2 137.5 59.7C137.3 59.2 137.5 59 137.8 58.8ZM136.4 59.5C136.5 59.4 136.6 59.3 136.8 59.5C137.1 59.9 137.3 60.2 137.4 60.7C137.5 61.4 137.5 62 137.1 62.6V62.7C137 62.7 137.1 62.7 137.1 62.6C136.6 61.9 136.4 61.1 136.3 60.3C136.2 60 136.2 59.7 136.4 59.5ZM135.6 55.9C135.6 55.7 135.7 55.3 135.9 55.3C136.2 55.3 136.2 55.7 136.2 56C136.1 56.7 136 57.4 135.7 58.1C135.6 57.8 135.4 57.6 135.4 57.4C135.4 56.9 135.5 56.4 135.6 55.9ZM135.6 60.3C135.2 60 135.2 59.5 135.7 59C135.6 59.5 135.9 59.9 135.6 60.3ZM135.6 60.4C135.6 60.3 135.6 60.3 135.6 60.4ZM135.4 58.6C135.5 58.9 135.1 58.9 135.1 59.2C134.7 58.8 134.5 58.3 134.5 57.8C134.5 57.6 134.7 57.4 134.8 57.5C135.1 57.7 135.3 58.2 135.4 58.6ZM133.2 59.3C133 59.2 132.9 59 132.8 58.8C132.7 58.5 132.9 58.2 133.3 58.3C133.6 58.4 133.8 58.5 134.1 58.7C134.4 58.9 134.5 59.4 135 59.4C135 59.5 135 59.5 135 59.6C135 59.7 135 59.9 135 60C134.3 59.9 133.7 59.6 133.2 59.3ZM134.2 61.3C133.8 61.2 133.5 61 133.1 61C132.8 61 132.5 60.7 132.6 60.4C132.6 60.2 133 60.2 133.2 60.2C133.6 60.2 133.7 60.6 134 60.7C134.3 60.8 134.3 61 134.2 61.3ZM134.6 60.3C134.9 60.4 135.1 60.5 135.3 60.7C135 60.7 134.8 60.6 134.5 60.5C134.4 60.5 134.4 60.5 134.4 60.4C134.5 60.3 134.5 60.3 134.6 60.3ZM133.9 54.2C134 54.2 134.1 53.9 134.2 54C134.5 54.2 134.8 54.4 134.8 54.7C134.8 55.4 134.7 56.1 134.8 56.7C134.8 56.9 134.7 56.9 134.6 56.9C134.4 57 134.4 56.8 134.4 56.8C134.1 56.2 133.9 55.5 133.9 54.8C133.8 54.7 133.8 54.5 133.9 54.2ZM133.2 53.3C133.4 53.6 133.3 53.8 133.2 54V54.1C133.1 54.1 133.2 54.1 133.2 54C133.1 53.8 133.1 53.5 133.2 53.3ZM134.2 57.3C134.2 57.4 134.2 57.4 134.2 57.5C134.1 57.7 134.1 58 134.1 58.3C134 58.2 133.8 58.2 133.8 58.1C133.8 57.7 133.5 57.7 133.3 57.6C133 57.4 132.6 57.2 132.3 57C131.8 56.7 131.2 56.3 131 55.7C130.9 55.6 130.9 55.4 131 55.2C131.2 55.1 132.2 55.2 132.4 55.3C133.3 55.6 133.7 56.5 134.2 57.3ZM130.9 54.4C130.8 53.8 131.1 53.4 131.5 53.4C132.1 53.3 132.7 54 132.6 54.6C131.5 54.2 131.5 54.2 130.9 54.4ZM132.6 51.6C133 52.2 132.6 52.8 132.6 53.4C132.3 53.1 132.1 52.9 131.8 52.9C132 52 132 51.9 132.6 51.6ZM131.3 50.9C131.4 50.7 131.5 50.5 131.8 50.3C132 50.2 132.1 50.4 132.2 50.5C132.4 50.7 132.4 50.9 132.2 51.1C132.2 51.2 132.1 51.3 132 51.4C131.9 51.1 131.6 51 131.4 51C131.3 51.1 131.2 51 131.3 50.9ZM131.5 51.8C131.7 51.9 131.6 52.1 131.5 52.2C131.4 52.4 131.3 52.6 131.1 52.9C130.9 52.6 130.8 52.4 130.8 52.1C130.8 51.9 130.8 51.7 131 51.7C131.2 51.5 131.4 51.7 131.5 51.8ZM129.9 50.4C130 51.1 130.5 51.6 130.4 52.4C129.9 52.1 129.4 51.9 129 51.5C128.8 51.4 128.7 51.2 128.8 51C128.8 50.8 129.1 50.9 129.2 50.9C129.5 51 129.7 50.7 129.9 50.4ZM129.1 48.5C129.4 48.8 129.5 49.4 129.4 49.9C129 49.4 128.9 49 129.1 48.5ZM127.9 47C127.9 46.8 128 46.6 128.2 46.6C128.4 46.6 128.7 46.6 128.9 46.9C129.1 47.3 129.1 47.7 128.9 48.1C128.8 48.4 128.7 48.7 128.7 49C128.5 48.8 128.2 48.9 128.1 48.7C127.8 48.1 127.8 47.6 127.9 47ZM127.2 45.7C127.2 45.6 127.1 45.4 127.3 45.4C127.4 45.4 127.6 45.5 127.6 45.6C127.8 46 127.7 46.3 127.4 46.6C127.1 46.3 127 46 127.2 45.7ZM127.5 48.4C126.6 47.9 126.4 47.5 126.8 47C127.1 47.4 127.4 47.8 127.5 48.4ZM126.1 47.3C125.7 47.1 125.3 47 125 46.6C125.5 46.4 126 46.6 126.2 47C126.3 47.1 126.2 47.2 126.2 47.2C126.2 47.4 126.1 47.4 126.1 47.3ZM126.4 46.7C126.1 46.5 125.8 46.3 125.8 45.8C126.2 45.9 126.5 46 126.8 46.3C126.8 46.4 127 46.5 126.9 46.5C126.7 46.6 126.6 46.9 126.4 46.7ZM126 48.7C127 48.4 127.7 49 128.5 49.4C127.1 49.8 126.3 49.5 126 48.7ZM127.8 50.2C128.3 50 128.7 50.1 129.1 50.3C129.2 50.3 129.2 50.3 129.2 50.4C129.2 50.5 129.1 50.5 129 50.5C128.7 50.5 128.2 50.6 127.8 50.2ZM129.1 52.8C128.8 52.7 128.4 52.6 128.1 52.5C127.7 52.4 127.6 52.1 127.7 51.8C127.8 51.5 128.2 51.4 128.5 51.6C129 51.9 129.5 52.2 130 52.5C129.7 52.6 129.4 52.5 129.3 52.8C129.2 52.9 129.1 52.8 129.1 52.8ZM129.3 54.4C129.1 54.3 128.9 54.1 129 53.9C129.1 53.7 129.4 53.5 129.7 53.6C130 53.7 130.2 53.8 130.5 53.8C130.4 54.2 130.5 54.6 130.6 54.9C130.2 54.5 129.7 54.6 129.3 54.4ZM130.5 53.3C130.2 53.3 129.9 53.3 129.6 53C130 52.9 130.2 52.9 130.5 53C130.6 53 130.7 53 130.7 53.1C130.7 53.3 130.6 53.3 130.5 53.3ZM130.6 51.3C130.5 50.9 130.3 50.5 130.2 50.2C130.1 49.8 130.3 49.6 130.6 49.4C130.7 49.4 130.7 49.4 130.8 49.4C131.1 49.8 131 51 130.6 51.3ZM130.6 57.1C130.5 56.9 130.4 56.6 130.5 56.4C130.7 56.2 130.9 56.4 131.1 56.5C131.7 56.9 132.4 57.4 133 57.8C132.8 57.8 132.6 58 132.4 57.9C132 57.7 131.6 57.7 131.2 57.6C131 57.6 130.8 57.4 130.6 57.1ZM132.1 59.1C131.6 59 131.5 58.6 131.3 58.3C131.3 58.3 131.2 58.1 131.4 58.1C131.7 58.1 132 58.2 132.3 58.3C132.5 58.4 132.3 58.6 132.4 58.7C132.5 58.9 132.5 59.1 132.6 59.3C132.4 59.2 132.3 59.1 132.1 59.1ZM132.7 62.6C132.4 62.5 132.3 62.3 132.3 62C132.3 61.7 132.5 61.4 132.7 61.4C133.4 61.3 134 61.6 134.5 62C134.8 62.3 135.1 62.7 135.4 63.1C134.4 63 133.5 62.9 132.7 62.6ZM134.7 65.7C134.2 65.6 133.6 65.5 133.2 65.2C133 65 132.8 64.8 132.9 64.6C133 64.3 133.2 63.9 133.6 64C133.7 64 133.8 64.1 133.8 64.2C134 64.6 134.3 64.8 134.6 65.1C134.9 65.3 135.4 65.4 135.4 65.9C135.2 65.7 134.9 65.7 134.7 65.7ZM135.1 64.7C134.7 64.5 134.5 64.3 134.3 64.1C134.2 63.9 134 63.7 134.4 63.5C134.8 63.3 135 63.4 135.3 63.6C135.6 63.7 135.5 64.1 135.6 64.3C135.7 64.5 135.2 64.8 135.1 64.7ZM135 62.1C134.8 61.9 134.7 61.6 134.6 61.2C134.8 61.2 135 61.2 135.1 61.1C135.7 60.9 135.8 61 136 61.5C136.1 61.7 136.2 62 136.3 62.3C136 62.2 135.7 62.1 135.5 62.2C135.3 62.7 135.2 62.3 135 62.1ZM135.8 63C136 62.8 136.3 63 136.6 63.1C136.8 63.2 136.9 63.3 136.9 63.5C136.9 63.8 137 64 137 64.3C137.1 64.6 137.2 64.9 137 65.3C136.2 64.9 136 64.7 135.8 63.8C135.8 63.4 135.6 63.1 135.8 63ZM135.7 64.9C136.4 65.2 137.1 65.6 137.4 66.4C136.3 66.4 135.5 65.5 135.7 64.9ZM137.5 64.3C137.1 63.3 137.4 62.7 137.8 61.9C137.9 61.7 138 61.7 138.1 61.9C138.2 62.1 138.3 62.3 138.4 62.5C138.6 62.8 138.4 63.7 138.1 63.9C137.9 64 137.7 64.1 137.5 64.3ZM137.8 66.1C137.2 65.3 137.6 64.4 138.5 64.3C138.1 64.8 138.1 65.5 137.8 66.1ZM133.9 95.5C134.1 93.3 134.3 91 134.5 88.8C134.6 87 134.6 85.2 134.9 83.4C135 82.7 135.2 82.1 135.6 81.5C135.7 81.3 135.9 81.1 136 81.1C136.2 81.1 136.2 81.4 136.2 81.5C136.3 81.6 136.3 81.8 136.3 81.9C136.6 83.3 136.5 84.6 136.3 86C136 88.2 135.6 90.3 135.2 92.5C134.9 94.5 134.5 96.4 134.1 98.4C133.9 97.5 133.9 96.5 133.9 95.5ZM115 126.8C115.5 126.8 116 126.8 116.4 126.8C120.2 126.7 123.8 125.7 127.4 124.5C129.7 123.7 132.1 123.2 134.5 123.6C134.5 123.6 134.6 123.6 134.6 123.7C134.6 123.8 134.6 123.7 134.5 123.7C133.8 123.9 133.1 124.2 132.4 124.4C130 125.3 127.7 126.3 125.2 126.8C123.1 127.2 121 127.7 118.9 127.5C117.6 127.4 116.3 127.3 115 126.8C114.9 126.9 114.9 126.9 114.8 126.8C114.9 126.8 114.9 126.8 115 126.8ZM130.8 111.2C129.4 113.7 128 116.3 126 118.3C126.6 115.4 128.5 113.2 130.8 111.2ZM153.8 95C153.7 95.9 152.9 96.3 152.4 97C152.6 95.9 153.1 95.1 153.8 95ZM153.3 97.5C153 98.5 152.9 98.5 152.1 98.6C152.5 98.2 152.4 97.3 153.3 97.5ZM152.1 95.3C152.4 96.1 152.2 97 151.7 97.1C151.7 96.4 151.8 95.8 152.1 95.3ZM152.3 97.3C152.1 97.8 151.9 98.2 151.7 98.6C151.4 99 151.3 99.5 150.6 99.2C151 98.5 151.2 97.5 152.3 97.3ZM151.2 96.5C151.3 97.2 151.1 97.8 150.6 98.3C150.2 97.8 150.5 97 151.2 96.5ZM150.4 100C150.5 99.8 150.7 99.6 151 99.7C150.8 100.2 150.8 100.2 150.4 100C150.4 100.1 150.3 100.1 150.4 100ZM149.7 98.1C149.8 98.3 149.9 98.4 150 98.6C150.1 99 150.3 99.4 150 99.9C149.8 100.3 149.3 100 149 100.4C149.2 99.5 148.9 98.6 149.7 98.1ZM150.4 100.9C150.4 101 150.4 101 150.4 101.1C150.4 101.5 150.2 101.7 149.5 101.7C149.7 101 149.6 100.9 148.8 100.9C149.2 100.4 150.1 100.4 150.4 100.9ZM149 101.4C148.9 102.1 148.5 102.7 148 102.8C148.1 102.1 148.1 101.4 149 101.4ZM148.8 103.3C148.1 103.7 148.1 103.7 147.7 103.6C148 103.1 148.4 103 148.8 103.3ZM147.4 100.5C147.4 100 147.6 99.6 147.9 99.3C148.1 99.1 148.2 99.1 148.3 99.4C148.4 99.7 148.5 100.1 148.5 100.5C148.5 100.9 148.4 101.3 148 101.5C147.7 101.7 147.4 101.6 147.1 101.9C147.4 101.3 147.4 100.9 147.4 100.5ZM147.2 102.2C147.2 102.1 147.4 101.9 147.6 101.9C147.8 101.9 147.7 102.1 147.7 102.3C147.6 102.8 147.4 103.3 147 103.7C147.1 103.3 147.2 102.8 147.2 102.2ZM146.5 100.5C146.6 100.4 146.7 100.3 146.8 100.3C147 100.3 146.9 100.5 147 100.6C147.1 100.9 147 101.3 146.8 101.6C146.7 101.8 146.5 101.8 146.4 101.8C146.3 101.8 146.3 101.7 146.3 101.7C146.3 101.3 146.3 100.9 146.5 100.5ZM145.4 101.3C145.6 101.2 145.7 101.3 145.7 101.4C145.9 101.9 145.5 102.3 145.4 102.6C145.3 102.8 145.2 102.9 145.1 103.1C145 103.3 144.8 103.2 144.7 103.1C144.6 102.6 145 101.6 145.4 101.3ZM145.1 104.5C145.2 104.2 145 103.7 145.6 103.6C145.5 103.9 145.5 104.3 145.1 104.5ZM146 104.8C146.1 104.8 146.1 104.8 146 104.8C146.2 104.8 146.1 104.9 146 104.8C145.6 105.1 145.3 105.4 144.9 105.5C144.9 105.5 144.9 105.5 144.8 105.5C144.8 105.5 144.8 105.4 144.9 105.4C145.2 105.2 145.5 104.7 146 104.8ZM144.8 103.6C144.8 104.4 144.5 105.1 144.2 105.7C144 106 143.6 106 143.3 106.2C143.5 105.6 143.6 105.1 143.5 104.5C143.5 104.5 143.5 104.4 143.6 104.3C144 104.1 144.2 103.7 144.8 103.6ZM144.4 102.4C144.4 102.7 144.5 103.1 144.3 103.2C143.9 103.5 143.5 103.9 143.1 104.3C143.2 103.4 143.5 102.7 144.4 102.4ZM142.9 104.9C143 105.8 142.8 106.5 142.2 106.6C142.3 106.2 142.4 105.8 142.5 105.4C142.4 105.1 142.6 105 142.9 104.9ZM141 107.4C141 107 141 106.6 141 106.1C141 105.3 141.4 104.6 142.2 104.2C142.2 105.2 141.9 106.1 141.6 107C141.5 107.2 141.4 107.3 141.3 107.5C141.2 107.6 141.1 107.6 141 107.6C140.9 107.6 141 107.4 141 107.4ZM142 107.8C142.1 107.8 142.3 107.8 142.2 107.9C142.1 108.3 142.1 108.7 141.9 109.1C141.7 109.4 141.4 109.2 141.2 109.3C141.2 108.8 141.5 108.4 140.9 108C141.3 107.9 141.6 107.8 142 107.8ZM140.7 108.5C140.8 108.4 140.9 108.4 140.9 108.5C141 108.8 140.9 109 140.8 109.3C140.8 109.3 140.8 109.4 140.7 109.4C140.5 109.5 140.2 109.8 139.9 109.7C139.7 109.6 139.9 109.4 139.9 109.2C139.9 108.7 140.4 108.8 140.7 108.5ZM139.9 106.9C140 106.6 140.1 106.2 140.6 106.1C140.5 107 140.8 108 139.8 108.7C139.8 108.5 139.5 108.4 139.6 108.2C139.8 107.7 139.8 107.3 139.9 106.9ZM139 106C139.1 106 139.2 105.6 139.4 105.7C139.6 105.8 139.5 106 139.6 106.2C139.7 106.6 139.4 107 139.4 107.4C139.4 107.5 139.3 107.7 139.2 107.6C139.1 107.5 138.7 107.7 138.8 107.3C138.8 106.9 138.8 106.4 139 106ZM138.8 108.1C138.9 108 138.9 108 139 108.1C139.5 108.5 139.6 109.5 139.2 110C139.1 109.7 139 109.3 138.6 109.3C138.5 109.3 138.5 109.2 138.5 109.1C138.5 108.8 138.6 108.4 138.8 108.1ZM138.5 109.9C138.8 110 138.8 110.2 138.6 110.4C138.2 110.7 137.9 111.1 137.4 111.2C137.1 111.2 136.8 111.4 136.5 111.5C136.4 111.1 136.5 110.9 136.8 110.7C137 110.5 137.2 110.3 137.4 110.2C137.7 109.8 138.1 109.7 138.5 109.9ZM137.5 108.1C137.4 108.5 137.6 108.8 137.6 109.2C137.6 109.4 137.6 109.5 137.4 109.6C137 109.8 136.6 110.2 136.3 110.6C136.3 109.8 137 108.3 137.5 108.1ZM135.5 112.1C135.5 111.5 135.7 111 135.9 110.4C136.2 111 135.9 111.8 135.5 112.1ZM137.1 113.4C136.6 113.2 136.2 113 135.6 112.7C136.3 112.7 136.8 112.8 137.2 113.2C137.3 113.3 137.4 113.3 137.3 113.4C137.3 113.5 137.2 113.4 137.1 113.4ZM136.2 112.3C136.3 111.9 136.6 111.8 137 111.7C137.8 111.4 138.5 111.2 139.3 111.2C139.8 111.2 139.9 111.5 139.7 111.9C139.6 112.2 139.4 112.4 139 112.5C138.1 112.7 137.1 112.6 136.2 112.3ZM139.7 113.8C139.3 113.8 138.9 113.7 138.4 113.7C138.1 113.6 137.8 113.5 137.7 113C138.2 113.1 138.7 113 139.2 112.8C139.7 112.7 139.9 112.8 140 113.3C140.1 113.6 140 113.7 139.7 113.8ZM138.8 110.8C139.1 110.3 139.7 110.1 140.4 110.3C139.9 110.6 139.4 110.9 138.8 110.8ZM142.6 109.5C142.3 109.9 141.9 110.1 141.5 110.2C141.1 110.3 141.1 109.9 140.8 109.8C141.3 109.6 141.9 109.6 142.6 109.5ZM143.2 111C142.3 111.3 141.5 111.4 140.7 110.9C141.4 110.5 142.6 110.5 143.2 111ZM142.9 107.9C142.7 107.4 142.3 107.4 141.7 107.3C142.1 107 142.5 106.7 142.9 106.6C143.3 106.5 143.4 106.6 143.2 107C143.2 107.4 143.1 107.7 142.9 107.9ZM145.2 108.9C144.4 109.1 143.5 109.1 143 108.8C143.9 108.2 144.8 108.3 145.2 108.9ZM145.4 107.2C144.9 107.8 144.3 108.1 143.5 107.9C143.6 107.5 144 107 143.7 106.5L143.8 106.4C144.4 106.1 145 105.9 145.7 105.8C145.8 105.8 146 105.8 145.9 106C145.7 106.4 145.6 106.8 145.4 107.2ZM147.2 106C147.6 105.9 147.7 106 147.7 106.4C147.6 106.8 147.4 107.2 147 107.3C146.6 107.4 146.1 107.5 145.6 107.6C146.3 106.3 146.3 106.3 147.2 106ZM146.4 104.1C146.3 104.3 146.1 104.4 145.8 104.4C145.9 104 146.1 103.6 146 103.1C145.9 102.7 146.2 102.2 146.6 102.2C146.8 102.2 146.9 102.2 146.9 102.4C146.9 103 146.7 103.6 146.4 104.1ZM148.3 104.6C148.1 104.9 147.9 105.1 147.6 105C147.2 105 147 104.7 146.6 104.4C147.2 104.1 147.6 103.9 148.2 104.2C148.4 104.3 148.4 104.4 148.3 104.6ZM150.1 104.1C150 104.4 149.8 104.6 149.4 104.6C149.1 104.6 148.8 104.6 148.7 104.2C148.7 104.1 148.6 104 148.5 103.9C148.9 103.6 149.4 103.7 149.8 103.6C150.1 103.6 150.2 103.7 150.1 104.1ZM150.7 102.8C150.4 103.2 149.9 103.2 149.5 103.2C149.4 103.2 149.4 103.2 149.3 103.1C149.3 102.8 149 102.7 148.8 102.6C149.5 101.9 150.3 101.7 151.3 102C151.2 102.4 150.9 102.6 150.7 102.8ZM152.5 101C152 101.4 151.4 101.3 150.7 101.4C150.9 101.1 150.6 100.8 151 100.6C151.4 100.4 151.8 100.2 152.3 100.3C152.5 100.3 152.7 100.3 152.8 100.5C152.8 100.7 152.7 100.9 152.5 101ZM153.7 98.9C153.3 99.3 152.8 99.8 152.2 99.9C151.9 100 151.6 100 151.3 100.1C151.4 99.9 151.3 99.6 151.5 99.5C152.1 99.1 152.8 98.8 153.6 98.7C153.7 98.7 153.8 98.6 153.8 98.7C153.8 98.8 153.7 98.9 153.7 98.9ZM154.6 96.4C154.4 96.7 154 96.9 153.6 97C153.3 97.1 153 97.1 152.8 97.2C152.8 97.2 152.8 97.2 152.8 97.1C153.3 96.5 153.8 96.1 154.6 96.4C154.7 96.4 154.6 96.3 154.6 96.4Z" fill="white"/>
<path d="M91.6 126.5C89.5 125.8 87.4 125 85.3 124C82.2 122.5 79.2 120.9 76.7 118.4C75.7 117.4 74.5 116.6 73.6 115.6C72.5 114.5 71.6 113.2 70.7 112.1C70.2 111.5 69.7 110.8 69.2 110.2C68.6 109.4 68 108.6 67.4 107.8C66.5 106.4 65.7 105 64.9 103.6C64.6 103.1 64.2 102.7 64.3 102.1C64.3 101.6 64.4 101.2 64.4 100.7C64.6 99.2 65 97.8 64.8 96.3C64.7 95.5 64.5 94.7 64.5 94C64.3 92.7 64.3 91.4 64.1 90C63.9 88.6 63.7 87.2 63.4 85.8C63.2 84.5 62.9 83.2 62.2 82.1C62 81.8 61.8 81.5 61.4 81.6C61 81.7 60.9 82 60.8 82.3C60.6 82.8 60.6 83.2 60.6 83.7C60.6 83.9 60.6 84.2 60.6 84.4C60.6 84.5 60.6 84.6 60.6 84.6C60.7 85 60.7 85.4 60.7 85.7C60.7 85.9 60.8 86 60.7 86.2C60.8 86.5 60.8 86.8 60.8 87C60.9 87.4 60.9 87.9 61 88.3C61 88.5 61.1 88.7 61.1 88.9C61.1 89 61.1 89 61.2 89.1C61.2 89.2 61.3 89.4 61.3 89.5C61.4 89.8 61.4 90.1 61.5 90.4C61.5 90.5 61.6 90.7 61.6 90.8C61.6 90.9 61.7 91 61.7 91.1C61.7 91.2 61.8 91.3 61.8 91.5C61.9 91.8 62 92.1 62 92.4C62.2 92.9 62.3 93.4 62.3 93.9C62.4 94.1 62.4 94.3 62.4 94.6C62.5 95 62.6 95.5 62.7 95.9C62.8 96.2 62.9 96.4 62.9 96.7C63.3 98.2 63.6 99.6 63.9 101.2C63.5 100.8 63.4 100.4 63.2 100C63 99.6 62.9 99.2 62.7 98.8C62.5 98.4 62.4 98 62.2 97.6C62.1 97.5 62.1 97.4 62.1 97.4C62.1 97.3 62 97.2 62 97.2C61.8 96.7 61.6 96.1 61.5 95.6C61.4 95.4 61.4 95.1 61.3 94.9C61.2 94.8 61.2 94.7 61.2 94.6C61.1 94.5 61 94.4 61.1 94.3C61 94 60.9 93.7 60.8 93.5C60.6 93 60.5 92.5 60.4 91.9C60.3 91.4 60.2 91 60.2 90.5C60.1 90.3 60 90.1 60 89.9C59.9 89.7 59.8 89.6 59.9 89.4C59.8 89.3 59.7 89.2 59.8 89C59.6 88.6 59.6 88.2 59.5 87.8C59.5 87.7 59.4 87.6 59.5 87.4C59.4 87 59.3 86.7 59.3 86.3C59.2 86 59.2 85.6 59.1 85.3C59.1 85.1 59.1 84.9 59 84.7C58.9 84.6 58.9 84.4 59 84.3C58.9 84.1 58.9 83.9 58.9 83.7C58.9 83.6 58.9 83.5 58.8 83.3C58.8 83.1 58.8 82.8 58.7 82.6C58.6 82.4 58.6 82.2 58.6 81.9C58.5 81.5 58.5 81.2 58.5 80.8C58.4 80.6 58.4 80.3 58.4 80C58.3 79.8 58.3 79.7 58.4 79.5C58.4 78.7 58.4 77.9 58.4 77.1C58.3 76.9 58.4 76.7 58.4 76.5C58.3 76 58.4 75.5 58.5 75.1C58.5 75 58.5 74.9 58.5 74.8C58.5 74.6 58.5 74.3 58.6 74.1C58.6 73.9 58.6 73.7 58.6 73.5C58.6 73 58.6 72.4 58.7 71.9C58.8 71.2 58.9 70.6 58.9 69.9C58.9 69.7 58.9 69.4 59 69.2C59 69.1 59 68.9 59 68.8C59.1 68.6 59 68.3 59.1 68.1C59.1 67.8 59.2 67.5 59.6 67.5C59.7 67.5 59.8 67.4 59.9 67.4C60.1 67.3 60.3 67.2 60.5 67C60.9 66.8 61.2 66.4 61.7 66.5C62.3 66.4 62.9 66.3 63.4 65.9C63.8 65.6 64 65.3 64 64.9C63.9 64.4 63.6 64 63.1 63.9C63 63.9 62.8 64 62.7 63.8C62.7 63.6 62.9 63.7 63 63.6C63.1 63.5 63.2 63.5 63.3 63.5C63.7 63.4 64.1 63.2 64.4 63C64.7 62.8 64.8 62.5 64.7 62.1C64.6 61.6 64.2 61.5 63.8 61.3C64.1 60.9 64.2 60.6 64 60.4C63.6 60 63.9 59.9 64.2 59.7C64.4 59.6 64.6 59.5 64.8 59.3C65.1 59.1 65.3 58.8 65.3 58.4C65.3 58.1 65.4 58 65.6 57.8C66 57.5 66.3 57.2 66.2 56.7C66.1 56.2 65.6 56.2 65.2 56.1C65.4 55.9 65.3 55.4 65.5 55.3C65.8 55.2 66.1 55 66.4 54.9C67 54.8 67.3 54.4 67.4 54C67.5 53.5 67.2 53.4 66.8 53.2C66.7 53.2 66.7 53.2 66.7 53.1C66.7 53 66.7 53 66.8 53C67.2 53.1 67.5 52.8 67.8 52.8C68.3 52.7 68.6 52.3 68.6 51.9C68.6 51.5 68.3 51.2 67.8 51C67.7 51 67.6 51 67.6 50.9C67.6 50.8 67.7 50.7 67.8 50.7C68.1 50.6 68.3 50.4 68.3 50C68.3 49.8 68.5 49.9 68.5 49.8C69.2 49.7 69.7 49.3 70 48.7C70.2 48.2 70 47.8 69.4 47.8C69.3 47.8 69.1 47.9 69.2 47.7C69.2 47.6 69.3 47.5 69.5 47.4C70.1 47.3 70.6 47 70.9 46.4C71.2 46 70.9 45.5 70.5 45.5C70.4 45.5 70.3 45.5 70.2 45.4C69.9 44.8 69.9 44.8 69.2 45.1C69.1 45.2 69 45.2 68.9 45C68.7 44.7 68.5 44.5 68.2 44.6C67.9 44.7 67.6 44.9 67.6 45.2C67.5 45.5 67.4 45.7 67.1 45.7C66.9 45.7 66.8 45.8 66.7 46C66.5 46.4 66.3 46.8 66.4 47.3C66.4 47.5 66.4 47.6 66.2 47.7C66.1 47.7 66.1 47.8 66.1 47.8C66.2 48.3 65.8 48.7 65.9 49.2C65.5 49 65.1 48.5 64.6 48.9C64.2 49.1 64.4 49.5 64.4 49.9C63.7 49.7 63.1 50.2 63.2 50.9C63.2 51 63.2 51.1 63.2 51.1C63.1 52 63 52.5 63.1 53C63.1 53.1 63.1 53.3 62.9 53.2C62.6 53.1 62.5 53.2 62.5 53.5C62.5 53.6 62.5 53.8 62.5 54C62.6 54.3 62.5 54.3 62.3 54.2C61.7 54 61.5 54.2 61.2 54.7C61 55 61 55.3 61 55.7C60.6 55.4 60.2 55.2 59.8 55.5C59.5 55.7 59.5 56.2 59.6 56.5C60 57.4 60 58.4 60.4 59.3C60.5 59.4 60.7 59.7 60.5 59.8C60.3 59.9 60.3 59.6 60.1 59.6C60 59.6 60 59.5 59.9 59.6C59.5 59.7 59.2 59.5 59 59.2C59 59.1 58.9 59.1 58.8 59.1C58.2 58.8 57.8 59.1 57.7 59.8C57.6 60.6 57.7 61.3 58.2 62C58.3 62.1 58.4 62.2 58.2 62.3C58 62.4 58 62.3 57.9 62.2C57.7 62 57.4 61.9 57.1 62C56.1 62.4 55.9 63.3 56.6 64.1C57.3 64.8 57.9 65.7 58.3 66.6C58.5 67 58.5 67.6 59.1 67.8C59.2 67.8 59.2 68 59.2 68.1C59.1 68.7 59 69.2 59 69.8C58.7 71.9 58.4 73.9 58.4 76C58.4 77.9 58.4 79.7 58.4 81.6C58.4 82.9 58.7 84.2 58.8 85.5C58.9 86.6 59 87.8 59.3 89C58.4 88.2 57.4 87.5 56.8 86.5C56.2 85.6 55.6 84.6 55 83.6C54.8 83.3 54.6 82.9 54.4 82.6C53.9 82 54.1 81.3 54.3 80.7C54.6 79.9 54.7 79.1 54.7 78.2C54.6 77.6 53.9 76.9 53.5 77C53.2 77.1 53 77.1 52.8 76.8C52.6 76.6 52.5 76.4 52.4 76.1C52.3 75.2 52 74.4 51.2 73.9C51 73.8 50.9 73.6 50.7 73.7C50.4 73.8 50.4 73.7 50.3 73.5C49.9 72.8 49.3 72.2 48.5 71.9C48.2 71.8 47.9 71.7 47.6 72C47.4 72.2 47.6 72.5 47.7 72.7C47.7 72.7 47.7 72.7 47.7 72.8C47.5 72.8 47.3 72.6 47.1 72.5C46.7 72.4 46.5 72.5 46.6 72.9C46.6 73.1 46.7 73.3 46.7 73.5C46.7 73.7 46.8 73.9 46.5 73.8C46.2 73.7 46.1 74 46.1 74.2C46.2 75.1 46.3 76.1 46.8 76.9C46.9 77.1 47.1 77.2 46.8 77.4C46.7 77.5 46.7 77.7 46.8 77.8C47.3 78.4 47.8 78.9 48.5 79.2C48.8 79.3 48.8 79.6 48.9 79.8C49.1 80.1 49 80.4 48.6 80.4C48.6 80.4 48.6 80.4 48.5 80.5C48.2 80.8 48.3 81.5 48.7 81.8C48.9 82 49.2 82.1 49.4 82.2C50.3 82.6 51.3 82.8 52.2 82.2C52.3 82.1 52.4 82.1 52.5 82.1C52.7 82.3 52.9 82.2 53.2 82.2C53.5 82.2 53.7 82.2 53.8 82.5C54.4 83.6 55 84.5 55.7 85.5C56.2 86.2 56.7 86.8 57.2 87.5C57.6 88 57.9 88.6 58.4 89C59.5 89.9 60.1 91.1 60.5 92.5C60.8 93.7 61.2 94.8 61.5 96C61.8 97 62.2 98 62.6 99C63.1 100.4 63.7 101.6 64.4 102.9C64.8 103.6 65.1 104.3 65.5 105C65.8 105.5 66.2 106.1 66.6 106.6C67.3 107.5 67.8 108.4 68.5 109.4C68.6 109.4 68.6 109.5 68.6 109.5C68.9 110 69.3 110.5 69.6 111H69.7C69.7 111 69.7 111 69.7 111.1C69.9 111.2 70 111.4 70.1 111.6C70.1 111.6 70.1 111.6 70.2 111.6V111.7C70.2 111.7 70.2 111.7 70.2 111.8C70.3 111.8 70.3 111.8 70.3 111.9C70.7 112.1 70.8 112.6 71.2 112.9C72 113.8 72.8 114.8 73.6 115.7C74.8 117.1 76.2 118.2 77.6 119.4C79.8 121.2 82.2 122.8 84.7 124.1C82.9 123.5 81.1 122.8 79.4 122C78.1 121.4 76.7 120.8 75.4 120.1C75.2 120 75.1 119.9 75 119.7C74.4 118.8 74 117.8 73.5 116.8C73.2 116.2 72.8 115.7 72.4 115.2C71.9 114.5 71.3 113.9 70.7 113.2C70.3 112.8 69.9 112.5 69.5 112.1C69.4 112.1 69.3 112 69.2 111.9C69.1 111.9 69.1 111.8 69 111.7C68.9 111.7 68.9 111.6 68.8 111.5C68.5 111.4 68.2 111.1 67.9 111C67.8 111 67.7 111 67.6 111.1C67.5 111.2 67.5 111.3 67.6 111.4C67.9 111.7 68 112.2 68.3 112.5C68.9 113.3 69.2 114.2 69.9 114.9C70.5 115.5 70.9 116.4 71.5 117.1C71.7 117.3 71.9 117.5 71.9 117.8C70.7 117.1 69.4 116.4 68.2 115.7C67.1 115.1 66.1 114.5 65 113.9C64.8 113.8 64.7 113.7 64.7 113.4C64.7 112.6 64.5 111.7 63.9 111.2C63.5 110.8 63.4 110.4 63.2 110C63.1 109.7 62.9 109.5 62.8 109.3C62.4 108.8 61.8 108.8 61.5 109.3C61.5 109.4 61.5 109.5 61.4 109.5C61.1 109.2 61.1 109.2 61.2 108.8C61.3 108.1 61.1 107 60.2 106.5C59.8 106.3 59.5 106.4 59.3 106.8C59.3 106.9 59.3 107.1 59.1 107.1C58.9 107 58.7 107.2 58.6 106.8C58.5 106.3 58.3 105.8 57.9 105.3C57.7 105 57.4 104.9 57 105C56.7 105.1 56.5 105.3 56.6 105.7C56.6 105.8 56.7 105.9 56.6 105.9C56.5 105.9 56.4 105.8 56.3 105.8C56.2 105.8 56.2 105.8 56.2 105.7C56.5 104.9 56 104.3 55.5 103.8C55 103.1 54.1 103 53.5 102.4C53.4 102.3 53.2 102.3 53.1 102.3C52.9 102.3 52.9 102.2 52.9 102.1C52.8 101.7 52.4 101.5 52 101.5C51.8 101.5 51.8 101.5 51.8 101.3C51.6 100.8 51.3 100.4 50.8 100.2C50.5 100.1 50.3 100.1 50.1 100.3C49.8 99.9 49.7 99.4 49.2 99.3C48.7 99.3 48.7 98.9 48.5 98.6C48.4 98.5 48.4 98.3 48.3 98.2C47.7 97.7 47 97.3 46.8 96.5C46.8 96.4 46.7 96.4 46.7 96.4C46.5 96.2 46.2 96.2 46 96.5C45.9 96.7 45.8 96.6 45.7 96.5C45.5 96.2 45.2 96 44.8 95.9C44.6 95.8 44.5 95.8 44.3 96C44.2 96.1 44.2 96.3 44.2 96.4C44.2 96.6 44.3 96.8 44.4 97C44.5 97.3 44.5 97.5 44.1 97.4C43.8 97.4 43.6 97.5 43.4 97.7C43.2 97.8 43.1 98.1 43.4 98.2C43.7 98.4 43.9 98.6 44.1 98.7C44.4 98.9 44.8 99 44.9 99.5C45 99.9 45 100 44.7 100C44.5 100 44.4 100.2 44.3 100.4C44.3 100.6 44.3 100.8 44.5 100.9C44.9 101.3 45.4 101.5 45.9 101.8C45.4 102.3 45.3 102.8 45.7 103.1C46 103.3 46.3 103.4 46.7 103.4C46.9 103.4 47.2 103.3 47.1 103.7C47.1 103.7 47.2 103.8 47.2 103.9C47.4 104.4 47.9 104.6 48.3 104.9C48.4 105 48.5 105 48.5 105.2C48.5 106 48.9 106.6 49.8 106.5C50.1 106.5 50.3 106.5 50.4 106.7C50.5 106.9 50.7 106.9 50.9 106.9C51.1 106.9 51.3 106.9 51.5 106.9C51.9 106.6 52.3 106.7 52.6 106.8C52.8 106.8 52.7 106.9 52.7 107C52.7 107.1 52.6 107.1 52.5 107.1C52.2 107 51.9 106.9 51.5 106.9C51.2 107 51 107.2 51 107.6C51.1 108.8 52.4 109.5 53.3 109.4C53.6 109.3 54 109.3 54.3 109.4C53.7 110 53.6 110.1 53.6 110.3C53.6 110.5 53.7 110.6 53.8 110.6C54.1 110.6 54.5 110.6 54.8 110.7C55.3 110.7 56.1 110.3 56.3 111.2C56.6 111.4 56.5 111.5 56.2 111.6C56 111.7 55.8 111.8 55.6 112C55.4 112.2 55.5 112.5 55.7 112.6C56.8 112.9 57.8 113 58.8 112.2C58.9 112.1 58.9 112 59.1 112.1C59.3 112.2 59.1 112.3 59.1 112.4C59 112.7 58.8 113.1 59.1 113.4C59.4 113.6 59.3 113.8 59.1 114C58.8 114.6 59 115.2 59.6 115.3C60.1 115.4 60.6 115.2 61.1 115.1C61.3 115 61.6 114.8 61.8 114.8C62.3 115 62.7 114.7 63.1 114.5C63.7 114.1 64.2 113.9 64.9 114.4C65.6 115 66.5 115.4 67.3 115.9C68.4 116.6 69.5 117.2 70.6 117.8C71.8 118.5 73 119.3 74.3 119.9C75.9 120.7 77.6 121.5 79.2 122.2C80.5 122.8 81.8 123.3 83.1 123.9C84.3 124.4 85.5 124.9 86.7 125.3C87.1 125.4 87.6 125.5 88 125.8C87.4 125.9 86.9 126 86.4 126.1C85.7 126.2 84.9 126.1 84.2 126.2C81.3 126.4 78.5 126 75.7 125.3C73.8 124.8 71.9 124.3 69.9 123.9C67.8 123.5 65.7 123.9 63.6 124.2C63.4 124.2 63.1 124.3 63.2 124.5C63.2 124.7 63.5 124.7 63.7 124.7C64.1 124.7 64.4 124.8 64.8 124.9C65.6 125.1 66.5 125.4 67.3 125.6C68.3 125.9 69.3 126.1 70.2 126.4C71.7 127 73.3 127.3 74.9 127.6C75.5 127.8 76.2 127.9 76.9 127.9C77.6 128 78.3 128.1 78.9 128.1C80.4 128.2 81.9 128 83.4 127.7C84.8 127.4 86.1 127 87.4 126.5C87.9 126.3 88.4 126.2 88.8 125.9C88.9 125.8 89 125.8 89 125.9C89.5 126.1 90.1 126.3 90.6 126.4C91.5 126.7 92.5 126.9 93.4 127.2C93.9 127.3 94.4 127.4 94.9 127.6C95 127.6 95 127.6 95.1 127.7C95.4 127.8 95.8 127.9 96.1 128L96.2 127.9C96.4 128 96.6 128 96.8 128.1L97.1 127.8C96.8 127.7 96.5 127.6 96.2 127.5C94.4 127.4 93 126.9 91.6 126.5ZM57.9 65C57.5 64.5 57.3 64.1 56.9 63.8C56.4 63.4 56.5 62.7 57.1 62.3C57.2 62.2 57.4 62.2 57.5 62.4C57.6 62.5 57.8 62.6 57.7 62.9C57.5 63.5 57.6 64 57.9 64.5C58.1 64.7 57.8 64.8 57.9 65ZM59.5 67.2C59.8 66.4 60.4 66 61.1 65.6C61.4 66.2 60.5 67.1 59.5 67.2ZM59.7 65C59.8 64.8 59.8 64.5 59.8 64.2C59.8 64 59.9 63.8 60.1 63.7C60.4 63.6 60.7 63.4 60.9 63.6C61.1 63.8 60.9 64.1 60.9 64.3C60.7 65.2 60.5 65.5 59.8 65.9C59.5 65.6 59.6 65.3 59.7 65ZM61.1 65C61.1 64.8 61.1 64.4 61.4 64.3C61.7 64.1 61.9 64 62.3 64.2C62.8 64.4 62.6 64.6 62.5 64.8C62.4 65.1 62.1 65.3 61.7 65.5C61.6 65.5 61.1 65.2 61.1 65ZM63.1 64.5C63.6 64.4 63.7 64.8 63.9 65.1C64 65.4 63.9 65.6 63.7 65.8C63.2 66.1 62.7 66.3 62.2 66.4C61.9 66.4 61.7 66.5 61.4 66.5C61.4 66 61.9 65.9 62.2 65.6C62.5 65.3 62.8 65.1 63 64.7C63 64.6 63 64.5 63.1 64.5ZM64.5 62.5C64.5 62.7 64.4 63 64.1 63.1C63.2 63.4 62.3 63.6 61.3 63.7C61.7 63.3 61.9 62.8 62.2 62.5C62.7 62.1 63.3 61.7 64 61.8C64.3 62 64.5 62.2 64.5 62.5ZM63.4 59.8C62.9 60.2 62.3 60.5 61.6 60.5C61.6 60.4 61.6 60.2 61.6 60.1C61.6 60.1 61.6 60 61.6 59.9C62.1 59.9 62.2 59.3 62.5 59.1C62.8 58.9 63 58.8 63.3 58.7C63.7 58.6 63.9 58.8 63.8 59.2C63.7 59.4 63.6 59.6 63.4 59.8ZM64.1 60.9C64.2 61.2 63.9 61.5 63.6 61.5C63.2 61.6 62.8 61.8 62.5 61.9C62.4 61.6 62.4 61.4 62.8 61.2C63.1 61.1 63.1 60.6 63.5 60.6C63.7 60.7 64 60.7 64.1 60.9ZM62 60.9C62.1 60.9 62.1 60.9 62.2 61C62.3 61.1 62.2 61.1 62.1 61.2C61.9 61.3 61.6 61.4 61.3 61.4C61.5 61.1 61.7 60.9 62 60.9ZM65.2 58.7C65 59 65 59.5 64.5 59.6C64.4 59.6 64.2 59.7 64.1 59.8C64.1 59.6 64.2 59.4 64.2 59.2C64.2 59.1 64.1 58.8 64.3 58.8C64.6 58.7 64.9 58.6 65.2 58.6C65.3 58.5 65.2 58.7 65.2 58.7ZM65.9 56.8C66.1 57 66 57.2 65.8 57.5C65.6 57.8 65.4 58 65.1 58.1C64.7 58.2 64.3 58.3 63.9 58.4C63.7 58.5 63.5 58.3 63.3 58.3C64 57.9 64.6 57.4 65.2 56.9C65.5 56.8 65.8 56.7 65.9 56.8ZM64.8 53.8C65.2 53.8 65.5 54.2 65.4 54.8C64.7 54.5 64.7 54.5 63.7 55.1C63.7 54.4 64.2 53.8 64.8 53.8ZM64.7 52.2C64.8 52.1 65 51.9 65.2 52C65.4 52.1 65.4 52.3 65.4 52.4C65.4 52.7 65.3 53 65.1 53.3C64.9 53 64.8 52.8 64.7 52.6C64.6 52.4 64.5 52.3 64.7 52.2ZM65.6 53.5C65.6 53.4 65.7 53.4 65.8 53.4C66.1 53.3 66.4 53.3 66.7 53.3C66.4 53.6 66.1 53.6 65.8 53.6C65.7 53.7 65.6 53.6 65.6 53.5ZM67.4 54.1C67.5 54.3 67.3 54.5 67.1 54.7C66.7 55 66.2 54.9 65.8 55.2C65.9 54.8 65.9 54.4 65.8 54C66.1 54 66.4 53.9 66.6 53.8C67 53.7 67.2 53.9 67.4 54.1ZM68.6 52C68.7 52.3 68.6 52.5 68.2 52.7C67.9 52.8 67.5 52.9 67.2 53.1C67.1 53.1 67.1 53.2 67 53.1C66.8 52.9 66.6 53 66.2 52.9C66.8 52.6 67.3 52.2 67.7 51.9C68.1 51.6 68.5 51.7 68.6 52ZM67.1 50.7C67 50.7 66.9 50.7 66.9 50.6C66.9 50.5 67 50.5 67 50.5C67.4 50.3 67.8 50.2 68.3 50.4C68 50.7 67.5 50.7 67.1 50.7ZM70.1 48.8C69.8 49.6 69 49.9 67.6 49.6C68.5 49.2 69.2 48.6 70.1 48.8ZM71 46.7C70.7 47.1 70.3 47.3 70 47.4C69.9 47.4 69.9 47.5 69.8 47.4C69.8 47.3 69.7 47.2 69.8 47.2C70.1 46.7 70.5 46.5 71 46.7ZM69.3 46.4C69.5 46.1 69.9 45.9 70.2 45.8C70.2 46.3 69.9 46.5 69.6 46.7C69.4 46.8 69.3 46.6 69.2 46.6C69.1 46.6 69.2 46.5 69.3 46.4ZM69.2 47C69.6 47.6 69.4 48 68.6 48.5C68.6 48 68.9 47.5 69.2 47ZM68.3 45.7C68.4 45.6 68.5 45.4 68.6 45.4C68.8 45.4 68.7 45.6 68.7 45.7C68.9 46 68.9 46.3 68.5 46.6C68.3 46.4 68.1 46.1 68.3 45.7ZM67.2 47.1C67.3 46.8 67.6 46.8 67.8 46.8C68 46.8 68.1 47 68.1 47.2C68.2 47.8 68.2 48.4 68 48.9C67.9 49.2 67.6 49.1 67.4 49.3C67.4 48.9 67.3 48.7 67.2 48.4C67 47.9 67 47.5 67.2 47.1ZM67 48.7C67.2 49.2 67.2 49.7 66.8 50.1C66.6 49.6 66.6 49 67 48.7ZM66.2 50.6C66.4 50.9 66.6 51.2 67 51.1C67.1 51.1 67.3 51 67.4 51.2C67.4 51.4 67.4 51.6 67.2 51.7C66.8 52.1 66.3 52.3 65.8 52.6C65.7 51.9 66.1 51.4 66.2 50.6ZM65.3 49.8C65.4 49.7 65.4 49.7 65.5 49.8C65.8 49.9 66 50.2 65.9 50.6C65.8 51 65.7 51.4 65.5 51.8C65.2 51.3 65 50.1 65.3 49.8ZM64 50.9C64.1 50.8 64.2 50.6 64.4 50.7C64.6 50.8 64.8 51 64.9 51.2C64.9 51.3 64.9 51.4 64.8 51.4C64.6 51.4 64.4 51.5 64.2 51.8C64.1 51.7 64.1 51.6 64 51.5C63.8 51.3 63.8 51.1 64 50.9ZM63.6 52C64.2 52.2 64.2 52.3 64.5 53.3C64.2 53.3 64 53.6 63.7 53.9C63.7 53.2 63.3 52.6 63.6 52ZM63.1 53.7C63.3 54 63.2 54.2 63.2 54.5C63 54.2 62.9 54 63.1 53.7ZM63.9 55.6C64.1 55.5 65.1 55.3 65.3 55.5C65.5 55.6 65.4 55.8 65.3 56C65.1 56.6 64.6 57 64.1 57.4C63.8 57.6 63.4 57.8 63.1 58.1C62.9 58.3 62.6 58.3 62.6 58.7C62.6 58.8 62.4 58.8 62.3 58.9C62.3 58.6 62.3 58.3 62.2 58.1C62.2 58.1 62.1 58 62.2 57.9C62.7 57 63.1 56.1 63.9 55.6ZM62.1 54.6C62.3 54.5 62.3 54.7 62.4 54.8C62.5 55 62.5 55.3 62.5 55.5C62.5 56.2 62.3 56.9 62.1 57.6C62.1 57.7 62.1 57.8 61.9 57.8C61.8 57.8 61.6 57.8 61.7 57.6C61.7 56.9 61.6 56.2 61.6 55.6C61.5 55 61.8 54.8 62.1 54.6ZM61.6 58C61.7 57.8 61.9 58.1 61.9 58.3C62 58.8 61.7 59.3 61.4 59.7C61.4 59.4 61 59.5 61 59.1C61.2 58.8 61.3 58.3 61.6 58ZM60.9 59.7C61.4 60.2 61.4 60.7 61 61C60.7 60.6 60.9 60.2 60.9 59.7ZM60.1 56.6C60.1 56.3 60.1 55.9 60.4 55.9C60.7 55.9 60.7 56.2 60.8 56.5C60.9 57 61 57.5 61 58C61 58.2 60.8 58.5 60.7 58.8C60.4 58 60.2 57.3 60.1 56.6ZM60.5 62.3C60.7 61.7 60.8 61.6 61.4 61.8C61.6 61.9 61.8 61.9 62 61.8C62 62.2 61.8 62.4 61.7 62.7C61.5 63 61.4 63.3 61 63C60.8 62.8 60.5 63 60.2 63.1C60.4 62.8 60.4 62.6 60.5 62.3ZM59.2 61.4C59.3 60.9 59.5 60.5 59.8 60.2C60 60 60.1 60.1 60.2 60.2C60.4 60.4 60.4 60.7 60.4 61C60.3 61.8 60.2 62.6 59.7 63.3C59.2 62.7 59.1 62.1 59.2 61.4ZM58.2 61.2C57.9 60.6 58 60.1 58.3 59.6C58.4 59.4 58.5 59.4 58.7 59.6C59 59.8 59.2 60 59 60.5C58.8 61 58.8 61.6 58.7 62.2C58.5 61.7 58.3 61.5 58.2 61.2ZM58.2 63.3C58.3 63.1 58.4 62.9 58.5 62.6C58.6 62.4 58.7 62.3 58.8 62.6C59.2 63.4 59.6 64 59.2 65C59 64.9 58.8 64.7 58.5 64.7C58.2 64.6 58 63.7 58.2 63.3ZM58.3 65.1C59.2 65.1 59.6 66 59.1 66.9C58.7 66.4 58.7 65.7 58.3 65.1ZM53.8 79.8C53.2 79.2 53.4 78.3 52.9 77.5C54 78 54.2 78.5 53.8 79.8ZM52.1 77.4C52.7 77.7 53.2 78.8 52.8 79.6C52.8 79.7 52.8 79.7 52.7 79.9C52.4 79.3 52.1 79 51.8 78.6C51.6 78.3 51.6 77.8 51.7 77.4C51.8 77.1 52 77.3 52.1 77.4ZM52.3 80.6C52.1 80.7 51.8 80.7 51.6 80.6C50.8 80.1 50.1 79.5 50.2 78.5C50.2 78.4 50.1 78.2 50.2 78.1C50.3 78 50.5 78.1 50.6 78.2C51.2 78.5 51.7 78.9 52.1 79.6C52.3 79.7 52.3 80 52.3 80.2C52.3 80.2 52.4 80.5 52.3 80.6ZM51.6 76.4C51.6 76.5 51.6 76.5 51.5 76.5C51.2 76.6 51.1 76.9 51 77.2C50.5 76.3 50.2 75.5 50.1 74.5C51 74.7 51.7 75.6 51.6 76.4ZM50.5 77.4C49.5 77.3 49.4 77.1 49.7 76.3C50 76.5 50.2 76.9 50.5 77.4ZM49.6 74C49.7 74.3 49.9 74.6 49.7 74.9C49.3 74.5 48.8 74.3 48.3 74.1C48.1 74.1 47.9 73.8 47.9 73.7C47.9 73.4 47.7 73.1 47.7 72.8C48.6 72.7 49.1 73.2 49.6 74ZM49.9 75.9C49.7 75.8 49.5 75.7 49.3 75.8C49 76.1 49.1 76.6 49.1 77C48.2 77 47.9 76.9 47.6 75.9C47.4 75.4 47.3 74.8 47.3 74.2C48.4 74.4 49.4 74.8 49.9 75.9ZM49.4 78C49 78 48.7 77.9 48.4 77.8C48.3 77.8 48.3 77.7 48.3 77.7C48.3 77.6 48.4 77.6 48.5 77.5C48.8 77.3 49.2 77.5 49.4 78ZM46.8 73.2C47.1 73.4 47.3 73.7 47.6 73.9C47.3 73.9 47 73.8 47 74.2C46.6 73.9 46.9 73.6 46.8 73.2ZM46.2 75.2C46.2 75 46 74.7 46.5 74.7C46.9 74.6 47 74.8 47 75.1C47.2 76 47.4 76.6 47.8 77.1H47.7C47.4 77 47.1 77.3 46.9 77C46.5 76.4 46 75.9 46.2 75.2ZM48.4 78.9C47.8 78.9 47.5 78.5 47.2 78C47.1 77.9 47 77.7 46.9 77.6C47.1 77.5 47.3 77.5 47.4 77.5C47.5 77.5 47.7 77.5 47.6 77.7C47.6 77.9 47.7 78 47.9 78.1C48.3 78.3 48.6 78.4 49.1 78.4C49.5 78.4 49.8 78.6 49.8 79.1C49.8 79.2 49.8 79.2 49.9 79.3C49.5 79.1 49 79 48.4 78.9ZM49 81.9C48.7 81.8 48.5 81.4 48.4 81C48.4 80.9 48.4 80.8 48.5 80.7C48.6 80.7 48.7 80.6 48.8 80.7C49.3 81.4 50.1 81.7 51 82.1C50.3 82.3 49.6 82.1 49 81.9ZM50.8 81.2C50.8 81.3 50.4 81.3 50.2 81.2C49.8 81.1 49.7 80.7 49.5 80.4C49.4 80.1 49.3 79.8 49.2 79.4C50 79.7 50.6 80.1 51.1 80.6C51 80.8 50.8 80.9 50.8 81.2ZM51.3 81.2C51.8 80.9 52.7 81.2 53.2 81.9C52.4 82 51.8 81.7 51.3 81.2ZM53.4 81.5C53.1 81 53.1 80.5 53.1 80.1C53.1 80 53.1 79.9 53.2 79.9C53.3 79.9 53.3 80 53.4 80.1C53.5 80.5 53.4 80.9 53.4 81.5ZM62.9 93.6C62.4 91.4 61.9 89.3 61.5 87.1C61.3 85.7 61 84.4 61.3 83C61.3 82.9 61.4 82.7 61.4 82.6C61.5 82.4 61.5 82.2 61.6 82.2C61.8 82.2 61.9 82.4 62.1 82.6C62.5 83.2 62.7 83.8 62.9 84.5C63.2 86.3 63.3 88.1 63.6 89.9C63.9 92.1 64.2 94.4 64.5 96.6C64.6 97.6 64.6 98.6 64.4 99.6C63.7 97.5 63.3 95.6 62.9 93.6ZM61.4 109.3C61.9 109.5 62.7 111 62.7 111.7C62.3 111.3 61.9 111 61.5 110.8C61.3 110.7 61.3 110.5 61.3 110.4C61.3 110 61.4 109.7 61.4 109.3ZM61.6 111.3C61.8 111.4 62 111.6 62.2 111.8C62.5 112 62.6 112.2 62.5 112.6C62.2 112.5 61.9 112.4 61.6 112.3C61.1 112.2 60.7 111.9 60.3 111.6C60.1 111.4 60.1 111.3 60.4 111.1C60.9 110.9 61.2 111.1 61.6 111.3ZM60.4 110.4C60.4 110.5 60.4 110.5 60.3 110.6C59.9 110.7 59.9 111 59.8 111.4C59.3 110.9 59.4 109.8 59.9 109.4C60 109.3 60 109.3 60.1 109.4C60.3 109.7 60.4 110.1 60.4 110.4ZM59.3 106.9C59.5 106.8 59.5 107.2 59.7 107.2C60 107.7 60 108.1 60.1 108.6C60.1 109 59.8 108.8 59.7 108.9C59.5 109 59.5 108.8 59.4 108.7C59.3 108.3 59.1 107.9 59.1 107.5C59.2 107.3 59.1 107 59.3 106.9ZM58.9 108.2C59.1 108.6 59 109 59.3 109.4C59.4 109.6 59.2 109.8 59.2 109.9C58.1 109.3 58.3 108.3 58.2 107.4C58.6 107.6 58.7 107.9 58.9 108.2ZM58 109.9C58 109.8 58.1 109.8 58.2 109.9C58.5 110.1 59.1 110.1 59 110.6C59 110.8 59.2 111 59 111.1C58.7 111.2 58.4 110.9 58.2 110.8C58.1 110.7 58.1 110.7 58.1 110.7C58.1 110.5 57.9 110.2 58 109.9ZM57.7 110.7C57.4 110.6 57.1 110.7 56.9 110.5C56.7 110.1 56.6 109.7 56.6 109.3C56.6 109.2 56.7 109.2 56.8 109.2C57.2 109.2 57.5 109.2 57.9 109.4C57.3 109.8 57.6 110.3 57.7 110.7ZM57.7 107.4C57.7 107.8 57.7 108.3 57.8 108.7C57.8 108.8 57.8 108.9 57.8 108.9C57.7 108.9 57.6 108.9 57.5 108.8C57.4 108.7 57.2 108.5 57.2 108.3C56.9 107.4 56.6 106.5 56.5 105.5C57.2 106 57.7 106.6 57.7 107.4ZM56.3 106.9C56.4 107.3 56.5 107.7 56.6 108.1C56 108 55.7 107.3 55.8 106.4C56.1 106.4 56.2 106.6 56.3 106.9ZM55.6 105.8C55.1 105.4 54.8 105.1 54.3 104.8C54.1 104.7 54.2 104.2 54.1 104C55 104.2 55.4 104.9 55.6 105.8ZM55 105.9C55 105.9 55.1 106 55.1 106.1C55.1 106.7 55.2 107.2 55.4 107.8C55.1 107.6 54.7 107.7 54.5 107.3C54.2 106.6 53.8 106 53.8 105.2C54.3 105.2 54.7 105.6 55 105.9ZM53.8 107.1C53.3 107 52.9 106.6 52.5 106.4C52.4 106.4 52.4 106.4 52.4 106.3H52.5C53.1 106.2 53.4 106.6 53.7 106.9C53.8 107.1 53.8 107.1 53.8 107.1ZM53 105.2C53.6 105.3 53.4 105.8 53.5 106.1C53.1 105.9 53.1 105.5 53 105.2ZM52.7 103C52.8 102.8 52.8 102.7 53 102.9C53.5 103.2 53.9 104.2 53.7 104.7C53.6 104.8 53.5 104.9 53.3 104.7C53.2 104.6 53.1 104.5 53 104.3C52.9 103.9 52.5 103.5 52.7 103ZM51.6 101.9C51.7 101.9 51.8 102 51.9 102.1C52.1 102.4 52.2 102.8 52.2 103.2C52.2 103.3 52.2 103.4 52.1 103.4C51.9 103.4 51.7 103.4 51.7 103.2C51.6 102.9 51.4 102.6 51.5 102.2C51.5 102.1 51.5 101.9 51.6 101.9ZM51.6 105.4C51.2 105 51 104.5 50.8 104C50.8 103.9 50.7 103.7 50.9 103.6C51.1 103.6 51.3 103.7 51.3 103.9C51.3 104.4 51.4 104.9 51.6 105.4ZM50.9 105.3C50.5 105.4 50.5 105.4 49.8 105C50.1 104.7 50.5 104.8 50.9 105.3ZM50 100.9C50.1 100.6 50.3 100.6 50.4 100.8C50.7 101.2 50.9 101.6 50.9 102C50.9 102.4 51 102.9 51.2 103.3C50.9 103.1 50.6 103.1 50.3 103C49.9 102.8 49.8 102.4 49.8 102C49.9 101.7 49.9 101.3 50 100.9ZM50.5 104.5C50 104.4 49.6 103.8 49.4 103.1C50.4 103.1 50.4 103.8 50.5 104.5ZM48.3 100.3C48.3 100.1 48.5 99.9 48.5 99.8C49.3 100.3 49.1 101.2 49.4 102C49 101.7 48.6 101.9 48.3 101.6C48.1 101.2 48.3 100.8 48.3 100.3ZM49.6 102.6C48.8 102.6 48.7 102.7 48.9 103.4C48.2 103.4 48 103.3 47.9 102.8C47.9 102.7 47.9 102.6 47.9 102.6C48.2 102.1 49.2 102.1 49.6 102.6ZM48 101.8C47.6 102 47.6 102 47.4 101.5C47.7 101.4 47.8 101.6 48 101.8ZM47.7 100.1C47.2 99.6 47 99 47 98.3C47.7 98.7 48 99.5 47.7 100.1ZM46 97.1C46.4 97.7 46.5 98.2 46.5 98.9C46 98.8 45.8 97.8 46 97.1ZM47.8 101C47.1 101.3 46.9 100.8 46.6 100.4C46.3 100 46.1 99.6 45.9 99.1C47 99.3 47.3 100.3 47.8 101ZM46.1 100.5C45.3 100.4 45.2 100.4 44.9 99.4C45.8 99.2 45.7 100 46.1 100.5ZM45.8 98.8C45.2 98.1 44.4 97.8 44.3 96.9C45 97 45.6 97.7 45.8 98.8ZM43.5 98.3C44.3 97.9 44.9 98.3 45.3 98.9C45.3 98.9 45.3 98.9 45.3 99C45.1 98.8 44.7 98.9 44.5 98.8C44.1 98.7 43.8 98.6 43.5 98.3ZM44.6 100.8C44.5 100.7 44.5 100.7 44.5 100.6C44.5 100.5 44.7 100.5 44.7 100.5C45.5 100.6 46.2 100.8 46.8 101.2C47 101.3 46.9 101.6 47.1 101.8C46.7 101.7 46.5 101.7 46.2 101.7C45.5 101.7 45 101.3 44.6 100.8ZM45.9 102.9C45.7 102.8 45.6 102.6 45.6 102.5C45.6 102.3 45.9 102.3 46 102.2C46.5 102.1 46.9 102.3 47.3 102.5C47.6 102.7 47.4 103 47.6 103.3C47 103.2 46.4 103.3 45.9 102.9ZM47.8 104.6C47.6 104.4 47.3 104.2 47.1 103.8C48.1 103.5 48.9 103.7 49.6 104.3C49.4 104.4 49.1 104.5 49.1 104.8C49.1 104.9 49 104.9 49 104.9C48.6 105 48.1 105 47.8 104.6ZM49.8 105.9C49.7 106.3 49.5 106.3 49.1 106.3C48.7 106.3 48.5 106.1 48.4 105.8C48.3 105.5 48.4 105.3 48.7 105.4C49.1 105.5 49.6 105.3 50 105.6C49.9 105.7 49.8 105.8 49.8 105.9ZM51 106.7C50.6 106.7 50.4 106.6 50.2 106.3C50.1 106.1 50.1 106 50.3 105.9C50.8 105.6 51.3 105.8 51.9 106C51.6 106.3 51.5 106.7 51 106.7ZM52.2 105.7C51.9 105.2 51.6 104.6 51.6 104C51.6 103.8 51.7 103.8 51.9 103.8C52.3 103.8 52.6 104.3 52.5 104.7C52.4 105.2 52.6 105.6 52.8 106C52.6 106 52.4 105.9 52.2 105.7ZM51.8 109C51.3 108.9 51.1 108.6 51 108.2C50.9 107.8 51.1 107.7 51.4 107.8C52.3 108 52.3 108 53.1 109.3C52.6 109.1 52.2 109 51.8 109ZM53.4 108.8C53.1 108.5 53 108 52.8 107.6C52.7 107.4 52.9 107.4 53 107.4C53.7 107.5 54.3 107.6 54.9 107.9L55 108C54.8 108.5 55.2 108.9 55.3 109.4C54.5 109.6 53.9 109.3 53.4 108.8ZM53.7 110.5C54.1 109.9 54.9 109.8 55.9 110.3C55.4 110.6 54.5 110.6 53.7 110.5ZM55.9 109.4C55.7 109.1 55.6 108.9 55.4 108.6C55.3 108.2 55.3 108.1 55.7 108.2C56.1 108.3 56.5 108.5 57 108.8C56.5 108.9 56.1 108.9 55.9 109.4ZM55.8 112.5C56.4 112 57.6 111.9 58.3 112.3C57.4 112.8 56.6 112.8 55.8 112.5ZM57.5 111.7C57 111.6 56.6 111.4 56.3 111C57 111 57.6 111 58.2 111.3C57.9 111.4 57.9 111.8 57.5 111.7ZM58.5 111.6C59.2 111.4 59.8 111.6 60.2 112.1C59.6 112.2 59 112 58.5 111.6ZM60.7 114.9C60.3 115 59.9 115.1 59.4 115.1C59.1 115.1 59 114.9 59 114.6C59.1 114.1 59.3 114 59.8 114.1C60.3 114.2 60.8 114.3 61.3 114.2C61.4 114.7 61.1 114.8 60.7 114.9ZM60 113.8C59.7 113.7 59.5 113.5 59.3 113.3C59.1 112.9 59.2 112.6 59.7 112.6C60.5 112.5 61.3 112.7 62.1 113C62.4 113.1 62.8 113.2 62.9 113.6C62 113.9 61 114 60 113.8ZM62 114.7C61.9 114.7 61.8 114.8 61.7 114.7C61.6 114.6 61.7 114.5 61.8 114.5C62.2 114.1 62.7 114 63.4 114C62.9 114.2 62.5 114.4 62 114.7ZM63.1 111.6C63.3 112.1 63.6 112.7 63.6 113.3C63.2 113 62.8 112.2 63.1 111.6ZM68.3 112.2C70.7 114.1 72.7 116.2 73.5 119.2C71.4 117.2 69.9 114.6 68.3 112.2ZM85 127.2C83.7 127.7 82.4 127.9 81.1 128.1C78.9 128.4 76.8 128 74.7 127.7C72.1 127.3 69.7 126.4 67.3 125.6C66.6 125.4 65.9 125.2 65.1 125H65C65 125 65.1 125 65.1 124.9C67.6 124.3 70 124.7 72.3 125.4C76 126.4 79.6 127.3 83.5 127.2C84 127.1 84.5 127.1 85 127.2C85.1 127.1 85.1 127.1 85.2 127.1C85.1 127.2 85.1 127.2 85 127.2Z" fill="white"/>
<path d="M80.3 98.2V103.3C80.3 103.3 93.1 105.3 100.5 105.3C107.9 105.3 120.2 103.3 120.2 103.3V98.2C108.6 100.1 108.6 100.2 100.6 100.2C92.9 100.2 80.3 98.2 80.3 98.2Z" fill="white"/>
<path d="M118.2 76.8C115.1 73.9 111.6 73.6 108.4 74.3C107.1 73.8 105.8 73.5 104.7 73.6C104.9 73.4 105 73.2 105 72.9C105 72.3 104.5 71.8 103.9 71.8H103.8C103.8 71.8 102.2 71.2 102.5 70.8C102.8 70.2 103 69.6 103 68.9C103 66.8 101.3 65.1 99.2 65.1C97.1 65.1 95.4 66.8 95.4 68.9C95.4 69.6 95.6 70.2 95.9 70.8C96.1 71.2 94.6 71.8 94.6 71.8H94.5C93.9 71.8 93.4 72.3 93.4 72.9C93.4 73.2 93.5 73.4 93.7 73.6C92.5 73.5 91.3 73.8 90 74.3C86.8 73.6 83.3 73.9 80.2 76.8C76 80.8 75.6 84.7 76 87.4C76.4 90.3 79.4 96.5 79.4 96.5C79.4 96.5 89.4 98.5 99.3 98.5C109.3 98.5 119.3 96.5 119.3 96.5C119.3 96.5 122.3 90.3 122.7 87.4C122.9 84.7 122.5 80.7 118.2 76.8ZM87.4 93.9C85.7 93.7 84.2 93.5 82.9 93.3L79.2 90.5C78.8 89.9 78.2 88.7 77.9 87C77.4 83.9 78.6 81 81.5 78.4C83.1 77 84.8 76.3 86.5 76.3C82.8 79.7 84.4 84.1 86.1 88.2C85.9 88.3 85.6 88.5 85.3 88.6C85.3 88.6 87.4 91 87.4 92.4V93.9ZM98 82.9C97.4 83.5 96.5 84.2 95.3 84.8C97.1 86.6 97.7 89.2 96.9 91.6L95.9 94.6C95 94.6 94.1 94.5 93.2 94.5L89.4 90.3C90 89.4 90.5 89 90.5 89C89.6 88.4 89.4 88.1 89 87.6C88.8 87.3 88.4 87.2 88.1 87.3C86.2 82.2 85.5 78.9 90 76.7C92.5 77.4 94.8 78.6 96.5 79.6C96.9 79.8 97.2 80 97.6 80.2C97.8 80.3 97.9 80.3 98.1 80.4C98 80.3 98 82.9 98 82.9ZM98 75.6C97.5 75.1 97 74.7 96.3 74.3C96.8 74.4 97.3 74.4 98 74.5V75.6ZM100.2 74.5C100.8 74.5 101.4 74.4 101.9 74.3C101.3 74.7 100.7 75.1 100.2 75.6V74.5ZM109.2 87.6C108.8 88.1 108.6 88.4 107.7 89C107.7 89 108.2 89.3 108.8 90.2L106.3 93L105 94.4C104.1 94.5 103.3 94.5 102.4 94.5L101.4 91.5C100.6 89.1 101.2 86.5 103 84.7C101.7 84.2 100.9 83.5 100.3 82.8V80.2C100.5 80.1 100.6 80.1 100.8 80C101.1 79.8 101.5 79.6 101.9 79.4C103.5 78.5 105.9 77.2 108.4 76.5C112.9 78.8 112.2 82.1 110.3 87.1C109.8 87.3 109.5 87.4 109.2 87.6ZM119.1 90.4L115.3 93.3C114 93.5 112.5 93.7 110.9 93.9V93.6V92.4C110.9 92.2 111 91.8 111.2 91.5C111.7 90.2 113.1 88.6 113.1 88.6C112.8 88.5 112.6 88.4 112.4 88.2C114 84.2 115.5 79.6 111.8 76.2C113.5 76.3 115.3 76.9 116.8 78.3C122.3 83.7 120 88.9 119.1 90.4Z" fill="white"/>
</g>
<defs>
<clipPath id="clip0_2_3">
<rect width="189.9" height="159.3" fill="white"/>
</clipPath>
</defs>
</svg>
