<?xml version="1.0" encoding="iso-8859-1"?><!-- Generator: Adobe Illustrator 21.0.2, SVG Export Plug-In . SVG Version: 6.00 Build 0)  --><svg xmlns="http://www.w3.org/2000/svg" xmlns:xlink="http://www.w3.org/1999/xlink" viewBox="0 0 48 48" width="480px" height="480px"><path style="fill:#4CAF50;" d="M44,24c0,11.044-8.956,20-20,20S4,35.044,4,24S12.956,4,24,4S44,12.956,44,24z"/><path style="fill:#FFC107;" d="M24,4v20l8,4l-8.843,16c0.317,0,0.526,0,0.843,0c11.053,0,20-8.947,20-20S35.053,4,24,4z"/><path style="fill:#4CAF50;" d="M44,24c0,11.044-8.956,20-20,20S4,35.044,4,24S12.956,4,24,4S44,12.956,44,24z"/><path style="fill:#FFC107;" d="M24,4v20l8,4l-8.843,16c0.317,0,0.526,0,0.843,0c11.053,0,20-8.947,20-20S35.053,4,24,4z"/><path style="fill:#F44336;" d="M41.84,15H24v13l-3-1L7.16,13.26H7.14C10.68,7.69,16.91,4,24,4C31.8,4,38.55,8.48,41.84,15z"/><path style="fill:#DD2C00;" d="M7.158,13.264l8.843,14.862L21,27L7.158,13.264z"/><path style="fill:#558B2F;" d="M23.157,44l8.934-16.059L28,25L23.157,44z"/><path style="fill:#F9A825;" d="M41.865,15H24l-1.579,4.58L41.865,15z"/><path style="fill:#FFFFFF;" d="M33,24c0,4.969-4.031,9-9,9s-9-4.031-9-9s4.031-9,9-9S33,19.031,33,24z"/><path style="fill:#2196F3;" d="M31,24c0,3.867-3.133,7-7,7s-7-3.133-7-7s3.133-7,7-7S31,20.133,31,24z"/></svg>