<?xml version="1.0" encoding="iso-8859-1"?>
<!-- Generator: Adobe Illustrator 25.2.3, SVG Export Plug-In . SVG Version: 6.00 Build 0)  -->
<svg version="1.1" baseProfile="basic" id="Layer_1"
	 xmlns="http://www.w3.org/2000/svg" xmlns:xlink="http://www.w3.org/1999/xlink" x="0px" y="0px" viewBox="0 0 50 50"
	 xml:space="preserve">
<path style="fill:none;stroke:#000000;stroke-width:2;stroke-linecap:round;stroke-miterlimit:10;" d="M24,43L9,43
	c-1.654,0-3-1.346-3-3V7c0-1.654,1.346-3,3-3h24"/>
<path d="M46.139,2.051c-2.079-1.854-4.596-1.109-7.081,1.096c-0.369,0.328-0.737,0.691-1.103,1.079
	c-4.25,4.509-8.195,12.861-9.421,19.239c0.477,0.968,0.85,2.204,1.096,3.148c0.063,0.242,0.12,0.469,0.165,0.663
	c0.108,0.458,0.166,0.754,0.166,0.754s-0.038-0.144-0.194-0.598c-0.03-0.087-0.063-0.182-0.102-0.294
	c-0.017-0.046-0.04-0.102-0.066-0.162c-0.277-0.645-1.044-2.005-1.382-2.597c-0.289,0.852-0.544,1.648-0.757,2.369
	c0.974,1.783,1.568,4.838,1.568,4.838s-0.051-0.198-0.296-0.889c-0.217-0.611-1.3-2.508-1.557-2.952
	c-0.439,1.62-0.613,2.713-0.456,2.979c0.305,0.516,0.596,1.406,0.851,2.39c0.089,0.341,0.172,0.692,0.252,1.044
	c-0.265,2.327-0.327,4.664-0.199,6.978c0.133,2.508,0.484,4.984,0.881,7.426c0.042,0.257,0.278,0.444,0.541,0.419
	c0.275-0.026,0.477-0.27,0.451-0.545c-0.125-1.331-0.231-2.659-0.299-3.983l0.061,0.593c-0.095-1.189-0.121-2.469-0.07-3.832
	c0.181-4.834,1.294-10.664,3.349-16.74c3.473-9.172,8.291-16.532,12.7-20.046c-4.019,3.63-9.459,15.379-11.087,19.73
	c-1.823,4.872-3.115,9.444-3.894,13.825c1.344-4.107,5.688-5.872,5.688-5.872s2.131-2.628,4.62-6.382
	c-1.491,0.34-3.941,0.922-4.761,1.267c-1.21,0.508-1.536,0.681-1.536,0.681s3.92-2.387,7.282-3.468
	C46.174,16.925,51.213,6.577,46.139,2.051z"/>
</svg>