<?xml version="1.0" encoding="iso-8859-1"?>
<!-- Generator: Adobe Illustrator 26.3.1, SVG Export Plug-In . SVG Version: 6.00 Build 0)  -->
<svg version="1.1" xmlns="http://www.w3.org/2000/svg" xmlns:xlink="http://www.w3.org/1999/xlink" x="0px" y="0px"
	 viewBox="0 0 48 48" style="enable-background:new 0 0 48 48;" xml:space="preserve">
<g id="&#x421;&#x43B;&#x43E;&#x439;_1">
</g>
<g id="&#x421;&#x43B;&#x43E;&#x439;_2">
</g>
<g id="&#x421;&#x43B;&#x43E;&#x439;_3">
</g>
<g id="Man_With_Money">
</g>
<g id="Man_With_Money_1_">
</g>
<g id="Man_With_Money_2_">
</g>
<g id="Comparing">
</g>
<g id="Showing_Big_Size">
</g>
<g id="Afraid">
</g>
<g id="Mad">
</g>
<g id="Faint">
</g>
<g id="Winner">
</g>
<g id="Beach">
</g>
<g id="Island_On_Water">
</g>
<g id="&#x421;&#x43B;&#x43E;&#x439;_15">
</g>
<g id="&#x421;&#x43B;&#x43E;&#x439;_16">
</g>
<g id="&#x421;&#x43B;&#x43E;&#x439;_17">
	<path style="fill:#00ACC1;" d="M24,9.604c-6.4,0-10.4,3.199-12,9.597c2.4-3.199,5.2-4.398,8.4-3.599
		c1.826,0.456,3.131,1.781,4.576,3.247C27.328,21.236,30.051,24,36,24c6.4,0,10.4-3.199,12-9.598c-2.4,3.199-5.2,4.399-8.4,3.6
		c-1.825-0.456-3.13-1.781-4.575-3.247C32.672,12.367,29.948,9.604,24,9.604L24,9.604z M12,24c-6.4,0-10.4,3.199-12,9.598
		c2.4-3.199,5.2-4.399,8.4-3.599c1.825,0.457,3.13,1.781,4.575,3.246c2.353,2.388,5.077,5.152,11.025,5.152
		c6.4,0,10.4-3.199,12-9.598c-2.4,3.199-5.2,4.399-8.4,3.599c-1.826-0.456-3.131-1.781-4.576-3.246C20.672,26.764,17.949,24,12,24
		L12,24z"/>
</g>
</svg>