<svg width="192" height="122" viewBox="0 0 192 122" fill="none" xmlns="http://www.w3.org/2000/svg">
<g clip-path="url(#clip0_6_19)">
<path d="M49.4401 0.321037C46.0801 0.866829 43.1361 2.40788 40.7681 4.87999C39.2321 6.48525 3.84008 50.8226 2.49608 52.8453C-0.223917 56.9226 -0.543917 62.541 1.69608 67.1321C2.40008 68.5768 7.71208 75.5116 18.7201 89.3489C27.5201 100.393 34.8161 109.447 34.9441 109.447C35.3921 109.511 38.2081 105.337 39.5841 102.641C42.5921 96.6047 43.8721 91.211 43.7121 85.0789C43.5841 79.4926 41.9841 73.9705 39.4241 70.2142C35.9681 65.1737 35.3601 59.5231 37.7281 54.4184C38.3361 53.07 44.5761 44.9795 58.4321 27.6105C69.3121 13.9016 78.7201 2.11893 79.2961 1.3484L80.3841 -1.52588e-05L65.6961 0.0320892C57.6321 0.0641937 50.3361 0.192619 49.4401 0.321037Z" fill="white" stroke="white" stroke-width="0.5766"/>
<path d="M146.432 1.76579C143.328 7.06316 139.808 15.2821 138.496 20.2263C137.664 23.4047 137.376 28.5737 137.92 30.8532C138.592 33.7747 139.52 35.1553 146.56 43.9842C150.752 49.2495 153.728 53.2305 154.272 54.4184C156.224 58.6242 156.16 63.5042 154.048 67.6779C153.312 69.1547 146.4 78.08 132.352 95.6737L111.744 121.518L126.048 121.615C134.72 121.647 141.184 121.551 142.56 121.358C145.504 120.908 148.864 119.271 150.784 117.281C151.616 116.446 160.576 105.337 170.72 92.6237C184.032 75.8968 189.44 68.8979 190.24 67.2605C192.288 63.1189 192.352 58.7205 190.4 54.7074C189.76 53.3911 182.528 44.0805 168.608 26.6153C157.152 12.2321 147.68 0.449471 147.52 0.385262C147.392 0.321053 146.88 0.963158 146.432 1.76579Z" fill="white" stroke="white" stroke-width="0.5766"/>
<path d="M128.16 0.353165C125.568 0.738426 122.112 2.50422 120.256 4.39843C119.424 5.23316 113.344 12.7137 106.752 21.029L94.72 36.1184L110.176 36.2147C122.08 36.279 125.92 36.1826 127.04 35.8616L128.48 35.4442L128.736 33.55C129.856 25.01 132.064 19.1668 136.992 11.8468C138.464 9.66369 141.632 5.55421 142.72 4.49474C142.816 4.39843 143.808 3.33895 144.96 2.15106L147.008 7.62939e-06L138.56 0.0321121C133.888 0.0642166 129.216 0.192638 128.16 0.353165Z" fill="#2EF3D0" stroke="#2EF3D0" stroke-width="0.5766"/>
<path d="M88.1921 48.6716C85.9841 49.2174 83.1681 50.6621 81.6001 52.0747C80.9921 52.6526 74.3361 60.8395 66.8161 70.3105C59.2641 79.7495 49.2801 92.3026 44.5761 98.21C39.8401 104.117 35.8081 109.19 35.5841 109.511C35.2321 109.993 35.5201 110.474 37.7281 113.267C42.5281 119.335 45.9841 121.037 53.3761 121.037C62.4321 121.037 66.2081 118.019 74.4321 104.149C82.5281 90.5368 88.0321 75.961 90.2401 62.2842C90.7521 59.1379 91.4881 51.1758 91.5201 48.5432C91.5201 48.0616 90.5921 48.0937 88.1921 48.6716Z" fill="#2EF3D0" stroke="#2EF3D0" stroke-width="0.5766"/>
<path d="M144.8 2.31157L142.88 4.3342L144.896 2.40788C145.984 1.34841 146.88 0.449461 146.88 0.417356C146.88 0.160514 146.56 0.449461 144.8 2.31157Z" fill="#1F9FD6" stroke="#1F9FD6" stroke-width="0.5766"/>
<path d="M143.84 3.59577C135.104 13.0026 129.952 23.2442 129.088 32.8437L128.864 35.38L130.272 34.6737C131.04 34.2884 132.928 32.6831 134.496 31.11C137.184 28.3168 137.28 28.1884 137.28 26.7116C137.312 21.9279 139.552 14.8326 143.552 6.80629C145.152 3.59577 146.432 0.963135 146.368 0.963135C146.336 0.963135 145.184 2.15103 143.84 3.59577Z" fill="#1BB498" stroke="#1BB498" stroke-width="0.5766"/>
<path d="M90.6243 53.5589C89.8243 70.5105 82.9123 90.6084 71.9363 107.913C71.1363 109.133 70.7843 109.872 71.1363 109.518C71.4883 109.165 82.5283 95.3921 95.6483 78.9221L119.552 49H105.184H90.8163L90.6243 53.5589Z" fill="#1BB498" stroke="#1BB498" stroke-width="0.5766"/>
<path d="M51.456 121.262C52.352 121.326 53.888 121.326 54.816 121.262C55.712 121.197 54.976 121.165 53.12 121.165C51.264 121.165 50.528 121.197 51.456 121.262Z" fill="#24B2EB" fill-opacity="0.25" stroke="#24B2EB" stroke-opacity="0.25" stroke-width="0.5766"/>
<path d="M41.2159 73.0394C42.1439 74.9337 43.4559 79.4926 43.7759 81.9326C44.6079 88.6426 43.0399 96.2837 39.3919 103.283C38.4959 104.984 37.7919 106.333 37.8879 106.236C38.9119 105.177 52.7999 87.4547 52.7999 87.1979C52.7999 86.9089 41.9519 73.1358 40.8959 72.0763C40.7039 71.8837 40.8639 72.3331 41.2159 73.0394Z" fill="#CFCFCF" stroke="#CFCFCF" stroke-width="0.5766"/>
</g>
<defs>
<clipPath id="clip0_6_19">
<rect width="192" height="122" fill="white"/>
</clipPath>
</defs>
</svg>
