<svg width="190" height="128" viewBox="0 0 190 128" fill="none" xmlns="http://www.w3.org/2000/svg">
<path d="M53 94.5217L39.0645 78C43.9668 93.5602 42.0108 101.762 35 116L53 94.5217Z" fill="#CECECE"/>
<path d="M50.061 6.00012H81.061L40.061 57.5001C36.195 64.4036 35.5412 67.4504 40.0605 76.5001C46.249 90.8295 43.7015 102.256 37.561 112.5L35.061 116L2.06101 74.5001C-0.739277 68.4052 -0.634225 65.0137 2.06101 59.0001L39.061 12.5001C42.3067 8.24101 44.5911 6.11346 50.061 6.00012Z" fill="#F4F4F4"/>
<path d="M45 126.057C40.478 123.245 38.2698 121.076 35 116.057L53.5 93.0571C62.8459 81.0318 69.7839 72.1905 81 58.0571C85.1529 54.9659 89.3178 53.7062 91.5 54.0571C88.8368 80.7643 83.2455 93.8244 71 116.057C68.3566 120.402 66.5396 122.261 63 125.057C56.6334 128.389 52.3741 128.287 45 126.057Z" fill="#2EF3D0"/>
<path d="M91.5 54.0571C89.8632 71.7516 83.6011 87.4134 71 116.057C87.9599 95.2003 97.8433 85.1364 118.406 56.2997C119.235 54.5634 119.011 54.0846 117.5 54.0571H91.5Z" fill="#1BB498"/>
<path d="M136.882 33.1346L150.818 49.6563C145.915 34.0961 147.871 25.8943 154.882 11.6563L136.882 33.1346Z" fill="#CECECE"/>
<path d="M139.821 121.656H108.821L149.821 70.1562C153.687 63.2527 154.341 60.2059 149.822 51.1562C143.633 36.8269 146.181 25.4005 152.321 15.1562L154.821 11.6562L187.821 53.1562C190.621 59.2511 190.516 62.6426 187.821 68.6562L150.821 115.156C147.575 119.415 145.291 121.543 139.821 121.656Z" fill="#F4F4F4"/>
<path d="M155 12.0278C143.372 -2.45394 134.461 -4.54827 120.414 9.5306C118.31 22.5908 118.358 30.3319 121.896 42.9927C128.36 43.118 131.109 41.6944 137.707 34.0029L155 12.0278Z" fill="#2EF3D0"/>
<path d="M121.453 9.15347C120.873 11.5143 118.176 30.3456 122.953 42.6535C113.859 42.74 107.821 42.393 97.9525 42.1535C95.8731 42.2701 95.3191 41.8693 96.9525 39.1535C102.082 32.3462 122.032 6.79268 121.453 9.15347Z" fill="#1BB498"/>
</svg>
