<svg width="800" height="400" viewBox="0 0 800 400" fill="none" xmlns="http://www.w3.org/2000/svg">
<path d="M0 400V200V0H800V400H0Z" fill="#2870ED"/>
<path d="M567.2 90.3C568.4 89.1 570.6 87.6 572 87.1C573.4 86.5 576.5 86.2 579 86.4C581.5 86.7 584.6 87.7 586 88.8C587.4 89.8 589.5 92.2 590.8 94.1C592.3 96.4 593.1 99 593.1 102C593.1 105 592.3 107.6 590.8 109.9C589.5 111.8 587.2 114.3 585.7 115.4C583.6 116.9 581.4 117.5 577.5 117.5C573.6 117.5 571.4 116.9 569.3 115.4C567.8 114.3 565.5 111.8 564.2 109.9C562.7 107.7 562 105 562 102.3C562 99.9 562.6 96.8 563.4 95.3C564.2 93.7 565.9 91.5 567.2 90.3Z" fill="white"/>
<path d="M198.5 116C194.9 111.6 192 107.8 192 107.5C192 107.2 194.2 107 197 107C201.1 107 202.6 107.5 205.2 110C207 111.6 208.9 112.9 209.5 113C210.1 113 212.2 111.7 214.3 110C217.5 107.4 218.7 107 228.3 107.5L222 115C218.6 119.1 215.2 122.8 214.6 123.2C214 123.6 211.6 124 209.3 124C205.1 124 204.8 123.7 198.5 116Z" fill="white"/>
<path d="M463.7 123.5L470.5 115.3L477.2 107H483.1C486.3 107 489 107.3 489 107.8C488.9 108.2 485.7 112 474.5 124.1L463.7 123.5Z" fill="white"/>
<path d="M191.3 131.9C193.3 130.9 196.7 129.6 198.8 129.1C200.8 128.6 207.7 128.3 214 128.4C222 128.6 226.5 129.2 228.5 130.2C230.2 131.1 231.9 132.5 232.3 133.4C232.7 134.3 233 137.1 233 144.1L218.2 144.3C206.1 144.5 203 144.9 200.7 146.3C199.3 147.3 197.2 149.5 196.3 151.3C194.8 154 194.5 157.2 194.5 170.1C194.5 182.9 194.8 186.1 196.3 188.8C197.2 190.6 199.4 192.7 201 193.6C203.3 194.7 207.6 195.1 233 195.1L233.1 200.3C233.1 204.5 232.6 206 230.8 207.8C229.3 209.3 226.3 210.4 222 211.1C218.5 211.7 211.9 212 207.5 211.7C203.1 211.4 197.5 210.5 195 209.6C192.6 208.8 188.6 206.4 186.2 204.3C183.6 202.1 180.6 198.1 178.9 194.6C177.2 190.9 175.6 185.4 174.9 180.6C174.3 175.9 174.1 168.9 174.5 164.1C174.9 159.4 176.2 152.7 177.4 149.1C178.7 145.1 181 141 183.5 138.2C185.7 135.8 189.2 132.9 191.3 131.9Z" fill="white"/>
<path d="M306.5 133.6C308.2 132.5 311.8 130.8 314.5 129.8C317.8 128.7 322.7 128.1 328.8 128.1C333.9 128.1 340.2 128.5 342.8 129C345.4 129.6 348.8 130.9 350.3 132C352.7 133.8 353 134.8 353 144.1H339.5C329.8 144.1 325.1 144.5 322.5 145.6C319.6 146.8 319 147.6 319 150.1C319 152 319.8 153.7 321.3 154.8C322.6 155.8 328.3 158.6 334 161.1C340.3 163.8 346.1 167.1 348.8 169.6C351.3 171.7 354.2 175.4 355.3 177.6C356.9 180.8 357.2 183.1 356.9 189.1C356.6 195.4 356.1 197.4 353.9 200.6C352.4 202.8 349 205.8 346.4 207.2C343.7 208.7 338.4 210.4 334.5 211.1C330.3 211.8 324.2 212.1 319 211.7C314.4 211.4 309 210.6 307 210.1C305.1 209.6 302.5 208.4 301.3 207.4C299.7 206 299.1 204.3 298.6 195.6L316.3 195.1C330.1 194.7 334.3 194.2 335.6 193.1C336.5 192.2 337.2 190.4 337.3 189.1C337.4 187.7 336.8 185.7 336 184.7C335.2 183.7 329.1 180.3 322.5 177.1C315.9 174 309 170.1 307.1 168.5C305.2 166.9 302.7 163.3 301.4 160.6C299.8 157.2 299.1 153.7 299.1 150.1C299.1 146.3 299.8 143.1 301.3 140.1C302.5 137.7 304.9 134.8 306.5 133.6Z" fill="white"/>
<path d="M444.4 169.8C451.3 144.9 455.8 130.1 456.9 129.3C457.9 128.5 462.3 128.1 469.8 128.1C478.5 128.1 481.4 128.4 482.5 129.6C483.4 130.4 484 131.3 484 131.6C484 131.8 488.8 149.3 494.5 170.3C500.3 191.3 505 209.1 505 209.8C505 210.7 502.5 211.1 486 211.1L484.6 205.8C483.8 202.9 482.6 198.4 481 191.1H458L456.5 196.8C455.6 200 454.4 204.4 452.5 210.6H411.5L385.5 174.1L385 211.1H366V172.3C366 139.4 366.2 133.2 367.5 131.3C368.9 129.3 369.9 129.1 385 129.1L385.5 165.9L410.6 129.6L421.3 129.3C431.2 129.1 432 129.2 431.1 130.8C430.6 131.8 424.4 140.7 417.2 150.6C409.7 160.9 404.4 169 404.8 169.7C405.2 170.3 411.6 179.4 419 189.9C426.5 200.4 432.8 209 433 209C433.3 209 438.4 191.4 444.4 169.8Z" fill="white"/>
<path d="M531.7 136.1C532.9 134.1 535.7 131.6 538.2 130.3C542.5 128.1 543.2 128.1 577.3 128.1C603.9 128.1 612.8 128.4 615.3 129.4C617.1 130.1 619.8 132.1 621.3 133.9C622.8 135.6 624.5 138.7 625.1 140.8C625.7 142.9 626.1 145.8 625.5 150.2L552 150.1V160.1H626L625.8 179.8C625.6 196.4 625.3 200.1 623.8 202.8C622.8 204.6 620.6 207.1 618.8 208.3C615.6 210.5 615.3 210.6 577.4 210.6C540.1 210.6 539.1 210.5 536.4 208.4C534.8 207.3 532.7 205 531.8 203.4C530.8 201.9 529.7 198 528.5 189L603 189.1V179.1H529L529.3 159.3C529.5 141.2 529.7 139.3 531.7 136.1Z" fill="white"/>
<path d="M239.5 170.3C239.5 139.8 239.8 132 240.9 130.7C242.1 129.2 245.2 129.1 293 129.1L293.1 135.3C293.1 140 292.7 141.9 291.4 143.1C290.1 144.2 286.3 144.6 258.5 145V161.6L289 162.1L288.5 176.2L258.5 176.6L258 195.1H294V201.3C294 205.8 293.5 208 292.3 209.3C290.7 210.9 288.3 211.1 267 211.1C248.2 211.1 243.1 210.8 241.5 209.6C239.6 208.3 239.5 207.1 239.5 170.3Z" fill="white"/>
<path d="M293.5 237.1C291.8 237.1 289.8 235.6 286.9 232.1L282.7 227.1L285.6 227C287.3 227 289.4 227.9 290.5 229.1C291.6 230.2 293 231.1 293.5 231.1C294.1 231 295.4 230.1 296.5 229C297.8 227.7 299.6 227.1 304.3 227.6L300.1 232.3C297.3 235.6 295.3 237.1 293.5 237.1Z" fill="white"/>
<path d="M308.9 232.7C308.8 230.9 309.1 229.1 309.6 228.7C310 228.4 311.9 228.1 313.7 228.1C316.9 228.1 317.1 228.2 317.1 236.1H313.1C309.2 236.1 309.1 235.9 308.9 232.7Z" fill="white"/>
<path d="M382.9 253.7C382.8 240.3 383.1 229.1 383.6 228.7C384 228.4 385.9 228.1 391.1 228.1V278.1H383.1L382.9 253.7Z" fill="white"/>
<path d="M328.3 236.6C329 235 330.2 233 330.9 232.3C331.7 231.6 332.8 231.1 333.4 231.3C334.1 231.5 334.7 233.6 334.8 235.9L334.802 235.922C335.1 240 335.107 240.1 339.1 240.1C342.8 240.1 343.1 240.2 343.1 243.1C343.1 245.9 342.8 246.1 335.1 246.1L335.6 271.6L339.3 271.8C342.3 272 343.1 272.4 343.1 274.1C343.1 275.2 342.2 276.5 341.1 277.1C340 277.6 337.3 278.1 335.1 278.1C332.433 278.1 330.433 277.433 329.1 276.1C327.3 274.2 327.1 272.7 327.1 246.1H324.6C322.933 246.1 321.933 245.433 321.6 244.1C321.2 242.5 321.8 241.7 324.1 240.8C325.7 240.1 327.6 238.2 328.3 236.6Z" fill="white"/>
<path d="M177.3 243.5C178.6 241.9 181.2 240.5 183.6 240C185.8 239.6 190 239.4 193.1 239.7C196.1 240 199.1 240.7 199.9 241.4C200.6 242 201.1 243.3 201.1 244.3C201.1 245.8 200 246 193.3 246C187.5 246 185.2 246.3 184.3 247.5C183.6 248.4 183.3 249.7 183.6 250.6C183.8 251.4 186.2 253 188.8 254.1C191.4 255.2 195.1 256.9 197 257.8C198.8 258.8 201.1 261 202 262.8C203.2 265.4 203.3 266.9 202.6 269.7C202 271.7 200.3 274.3 198.7 275.5C196.5 277.1 194.1 277.6 187.2 277.9C182 278.1 177.7 277.8 176.3 277.2C175.1 276.6 174.1 275.2 174.1 274.1C174.1 272.2 174.7 272.1 182.8 272.1C189.5 272.1 191.8 271.8 192.8 270.6C193.5 269.7 193.9 268.3 193.8 267.3C193.7 266.2 190.6 264.1 186.1 261.8C181.9 259.7 177.8 257 176.8 255.8C175.7 254.5 175 252 175 249.8C175 247.4 175.9 245.1 177.3 243.5Z" fill="white"/>
<path d="M218.2 242.3C219 241.6 220.9 240.7 222.6 240.1C224.2 239.6 226.9 239.4 228.6 239.7C230.2 240 232.7 241 234.1 241.9C235.4 242.9 237.3 245.2 238.3 247.1C239.5 249.6 240.1 252.9 240 258.6C240 264.4 239.5 267.7 238 270.8C236.8 273.4 234.9 275.6 233.1 276.6C231.4 277.4 228.4 278 226.3 278C224.2 278 221.4 277.3 220.1 276.6C218.7 275.8 217.2 275.1 216.8 275.1C216.4 275.1 216.1 278.2 216.1 289.1H208.1V240.1H211.6C213.933 240.1 215.4 240.667 216 241.8C216.7 243.2 217.1 243.3 218.2 242.3Z" fill="white"/>
<path d="M250.6 243.1C251.6 242.2 254.1 241 256 240.3C258 239.6 261.5 239.3 264.1 239.6C266.5 239.9 269.7 241 271.1 242C272.4 243 274.5 245 275.6 246.5C277.1 248.6 277.6 251.1 277.9 257.9C278.1 264.7 277.8 267.3 276.4 270C275.4 271.9 273.3 274.3 271.7 275.5C269.8 276.9 267 277.6 262.7 277.9C258.3 278.1 255.6 277.7 253.1 276.4C250.8 275.2 248.8 273 247.3 270.1C245.6 266.7 245.1 263.8 245.1 259.1C245.1 255 245.8 251.1 246.9 248.6C247.9 246.4 249.6 243.9 250.6 243.1Z" fill="white"/>
<path d="M294.6 243.1C294.8 242.5 296.5 241.4 298.3 240.6C300.1 239.8 302.2 239.2 303.1 239.3C304 239.5 304.6 240.9 304.8 243.3C305 246.6 304.8 247.1 302.8 247.1C301.6 247.1 299 247.7 293.6 249.6L292.6 277.6L285.1 278.1V240.1H288.1C290.2 240.1 291.2 240.6 291.6 242.1C291.8 243.2 292.5 244.1 293.1 244.1C293.6 244.1 294.3 243.6 294.6 243.1Z" fill="white"/>
<path d="M350.6 243.1C351.6 242.2 354.1 241 356 240.3C358 239.6 361.2 239.3 363.3 239.5C365.4 239.8 368.4 240.7 370.1 241.6C371.7 242.4 373.8 244.3 374.8 245.8C375.9 247.6 376.5 250.7 376.6 260.6L364.8 260.8C356.2 261 353.1 261.4 353 262.3C353 263 353.5 264.9 354 266.6C354.6 268.2 356.1 270.1 357.5 270.8C358.9 271.5 363.4 272.1 367.6 272.1C374.4 272.1 375.1 272.2 375.1 274.1C375.1 275.2 374.1 276.4 372.6 277.1C371.2 277.6 367 278 363.3 278C358.9 278 355.4 277.4 353.1 276.3C350.8 275.2 348.8 273 347.3 270.1C345.6 266.7 345.1 263.8 345.1 259.1C345.1 255 345.8 251.1 346.9 248.6C347.9 246.4 349.6 243.9 350.6 243.1Z" fill="white"/>
<path d="M409.7 242.1C410.6 241.2 412.8 240.3 414.5 239.9C416.2 239.5 417.8 239.2 418.1 239.2C418.3 239.1 420.2 239.5 422.3 240.1C424.9 240.7 426.7 242.1 428.1 244.3C429.8 247.2 430.1 249.3 430.1 278.1H422.1L422 263.8C422 251.7 421.8 249.3 420.3 247.8C419.3 246.8 417.2 246 415.3 246C413.5 246 410.9 246.6 407 248.6L407.1 278.1H399.1V240.1H402.6C404.933 240.1 406.4 240.667 407 241.8C407.8 243.4 408 243.4 409.7 242.1Z" fill="white"/>
<path d="M440.3 241.4C441 240.8 442.7 240.1 444.1 239.9C445.4 239.7 447.7 239.4 449.1 239.3C450.4 239.1 453.9 239.5 456.8 240C460.7 240.8 462.7 241.8 464.6 244.1C467 247 467.1 247.5 467.1 278.1H464.1C462.2 278.1 460.6 277.3 459.8 276.2C458.6 274.3 458.5 274.3 455.6 276.2C453.7 277.3 450.7 278 447.8 278C444.2 278 442.3 277.4 440.1 275.6C438.3 274.1 436.8 271.7 436.4 269.8C436.1 267.9 436.4 265.3 437.2 263.6C438 261.7 440.3 259.7 443.1 258.3C445.5 257.1 450.2 255.7 453.3 255.3C458.6 254.6 459.1 254.3 459 252.1C459 250.7 458.2 248.7 457.3 247.8C455.9 246.3 453.9 246 447.3 246C440.1 246 439.1 245.8 439 244.3C439 243.3 439.6 242 440.3 241.4Z" fill="white"/>
<path d="M309.1 276.8V258.1V240.1L311.8 240C313.3 240 315.1 240.5 315.8 241.3C316.7 242.2 317 247.3 316.6 277.6H312.8C310.7 277.6 309.1 277.2 309.1 276.8Z" fill="white"/>
<path d="M461.5 176L465 162.5C466.9 155.1 468.8 149 469.2 149C469.6 149 470 149.2 470 149.5C470 149.8 471.4 155.1 473 161.3C474.7 167.4 476.3 173.3 476.5 174.2C476.9 175.8 476.1 176 461.5 176Z" fill="#2870ED"/>
<path d="M253.6 254C254 251.4 255.3 248.6 256.6 247.3C257.9 246 260.1 245 261.5 245C262.9 245 265.2 246.1 266.8 247.4C269.2 249.6 269.5 250.6 269.8 257.2C270 262.7 269.7 265.3 268.3 268C266.7 271.1 266 271.5 262.3 271.8C259.3 271.9 257.4 271.5 256.2 270.3C255.2 269.3 254 266.3 253.6 263.5C253.2 260.8 253.1 256.5 253.6 254Z" fill="#2870ED"/>
<path d="M353.7 252.5C353.8 250.7 355 248.6 356.5 247.3C358 246 360.1 245 361.3 245C362.5 244.9 364.5 245.7 365.8 246.7C367.4 247.9 368.2 249.7 368.5 255.5H353.5L353.7 252.5Z" fill="#2870ED"/>
<path d="M215.9 259.1C215.7 249.6 215.9 249 218.1 247.5C219.4 246.7 222 246 223.8 246C225.7 246 227.8 246.8 229 248C230.1 249.1 231.3 251.7 231.6 253.8C232 255.8 232 259.8 231.7 262.5C231.3 266.2 230.6 268.1 228.6 269.8C227.2 271 225.3 272 224.5 272C223.7 272 221.4 271.3 216 269L215.9 259.1Z" fill="#2870ED"/>
<path d="M445.9 263.3C446.4 262.6 447.8 261.7 449.1 261.1C450.4 260.6 453.2 260.1 455.3 260.1C459 260 459 260 459 264.3C459.1 266.6 458.5 269 457.8 269.6C457.1 270.3 454.9 271.1 453 271.4C450.6 271.9 448.8 271.6 447.3 270.6C446 269.7 445 268 445 266.8C445 265.5 445.4 264 445.9 263.3Z" fill="#2870ED"/>
</svg>
