<?xml version="1.0" encoding="UTF-8" standalone="no"?>
<!DOCTYPE svg PUBLIC "-//W3C//DTD SVG 1.1//EN" "http://www.w3.org/Graphics/SVG/1.1/DTD/svg11.dtd">
<svg xmlns="http://www.w3.org/2000/svg" xml:space="preserve" fill-rule="evenodd" stroke-linejoin="round" stroke-miterlimit="2" clip-rule="evenodd" viewBox="0 0 713 142">
  <g fill-rule="nonzero">
    <path fill="#a70236" d="M131.62 129.2c0 2.37-.12 3.97-.34 4.82a3.72 3.72 0 0 1-1.52 2.24c-.99.67-2.16 1-3.53 1-.95 0-1.83-.17-2.63-.51a3.84 3.84 0 0 1-2.11-1.91c-.43-.89-.64-2.77-.64-5.64v-14.72h-5.28v15.14c0 2.97.18 5.02.53 6.16a7.6 7.6 0 0 0 2.95 4c1.74 1.25 4.14 1.87 7.18 1.87 4.32 0 7.37-1.29 9.16-3.87a8.58 8.58 0 0 0 1.36-4.15c.1-.82.14-2.16.14-4v-15.15h-5.27v14.72ZM124 111.84h3.2l3.94-4.86h-5.31l-1.83 4.86Zm47.62 5.06c-1.82-1.97-4.58-2.95-8.26-2.95-3.04 0-5.51.74-7.4 2.23a6.96 6.96 0 0 0-2.77 5.77 6.4 6.4 0 0 0 4.08 6.3c.88.39 2.61.92 5.17 1.57 3.16.8 5.1 1.46 5.82 1.97a2.42 2.42 0 0 1 1.02 2.1c0 1.31-.66 2.26-1.97 2.86a9.18 9.18 0 0 1-3.77.72c-2.25 0-3.88-.55-4.9-1.66a4.65 4.65 0 0 1-1.04-2.93h-5.07c.2 3.75 2.04 6.33 5.5 7.75a14.7 14.7 0 0 0 5.62 1.02c1.83 0 3.49-.26 4.98-.78 2-.7 3.5-1.77 4.51-3.18a7.47 7.47 0 0 0 1.4-4.34 6.82 6.82 0 0 0-3.65-6.14c-1.01-.56-2.75-1.12-5.2-1.7a49.63 49.63 0 0 1-5.55-1.5 2.69 2.69 0 0 1-1.7-2.64c0-1 .46-1.78 1.4-2.39a6.39 6.39 0 0 1 3.54-.85c2 0 3.46.48 4.4 1.44.57.58.96 1.4 1.14 2.52h4.92c-.44-2.32-1.18-4.05-2.22-5.2Zm29.12 14.81c.75 0 1.5-.03 2.26-.09 2.51-.24 4.44-1.11 5.79-2.62a8.32 8.32 0 0 0 2.08-5.76c0-1.48-.31-2.87-.94-4.17a7.74 7.74 0 0 0-3.47-3.62c-1.27-.65-3.04-.97-5.3-.97h-10.6v26.64h5.28v-9.4h4.9Zm-4.9-13.03h3.71c.96 0 1.66.02 2.09.07 1.39.16 2.41.7 3.08 1.62.58.83.88 1.8.88 2.89 0 1.81-.8 3.06-2.4 3.73a7.5 7.5 0 0 1-3.04.53h-4.32v-8.84Zm50.45 22.44v-4.2h-14.64v-7.77h12.57v-4.19h-12.57v-6.28H246v-4.2h-19.63v26.64h19.91Zm-6.93-29.32 3-4.85h-4.1l-2.06 3.25-2.07-3.25h-4.1l3.12 4.85h6.21Zm35.11 25.45a6.78 6.78 0 0 1-5.34-2.36 10.33 10.33 0 0 1-2.5-7.12c0-2.7.76-4.97 2.3-6.83a6.88 6.88 0 0 1 5.58-2.6c1.95 0 3.52.63 4.7 1.88a6.28 6.28 0 0 1 1.43 2.85h5.25a11.64 11.64 0 0 0-2.75-5.72c-2.12-2.27-5.06-3.4-8.82-3.4-2.2 0-4.18.45-5.96 1.33a11.65 11.65 0 0 0-5.06 4.82 15.51 15.51 0 0 0-1.94 7.8c0 2.43.47 4.65 1.42 6.62 1.1 2.33 2.7 4.16 4.76 5.47 1.77 1.12 4.01 1.68 6.72 1.68 4.3 0 7.55-1.5 9.78-4.47 1.02-1.4 1.65-3 1.85-4.85h-5.13c-.83 3.28-2.93 4.9-6.29 4.9Zm27.52 3.87h5.27v-11.8h11.17v11.8h5.27v-26.64h-5.27v10.66h-11.17v-10.66h-5.27v26.64Zm73.45-24.22c-1.83-1.97-4.58-2.95-8.26-2.95-3.05 0-5.51.74-7.4 2.23a6.95 6.95 0 0 0-2.77 5.77 6.4 6.4 0 0 0 4.08 6.3 38 38 0 0 0 5.17 1.57c3.15.8 5.08 1.46 5.81 1.97a2.42 2.42 0 0 1 1.02 2.1c0 1.31-.65 2.26-1.97 2.86a9.2 9.2 0 0 1-3.77.72c-2.25 0-3.88-.55-4.9-1.66a4.58 4.58 0 0 1-1.03-2.93h-5.08c.21 3.75 2.05 6.33 5.51 7.75 1.65.68 3.52 1.02 5.62 1.02 1.82 0 3.48-.26 4.97-.78a8.92 8.92 0 0 0 4.51-3.18 7.4 7.4 0 0 0 .6-7.63 6.79 6.79 0 0 0-2.86-2.85c-1-.56-2.73-1.12-5.19-1.7a48.97 48.97 0 0 1-5.54-1.5 2.68 2.68 0 0 1-1.7-2.64c0-1 .46-1.78 1.38-2.39a6.44 6.44 0 0 1 3.56-.85c1.99 0 3.46.48 4.4 1.44.57.58.95 1.4 1.14 2.52h4.92c-.44-2.32-1.18-4.05-2.22-5.2Zm29.1 14.81c.77 0 1.52-.03 2.28-.09 2.51-.24 4.44-1.11 5.78-2.62a8.3 8.3 0 0 0 2.08-5.76c0-1.48-.31-2.87-.94-4.17a7.74 7.74 0 0 0-3.47-3.62c-1.27-.65-3.04-.97-5.29-.97h-10.6v26.64h5.27v-9.4h4.9Zm-4.89-13.03h3.71c.97 0 1.66.02 2.09.07a4.2 4.2 0 0 1 3.09 1.62 5 5 0 0 1 .87 2.89c0 1.81-.8 3.06-2.4 3.73-.8.36-1.82.53-3.02.53h-4.34v-8.84Zm36.61-3.5a11.82 11.82 0 0 0-5.97 6.42 16.83 16.83 0 0 0 0 12.4 12.43 12.43 0 0 0 3.75 5.05 12.3 12.3 0 0 0 7.83 2.6c1.68 0 3.27-.3 4.76-.88 2.32-.9 4.18-2.42 5.59-4.53a15 15 0 0 0 2.36-8.45c0-2.17-.4-4.24-1.2-6.2a11.97 11.97 0 0 0-3.74-5.04 12.18 12.18 0 0 0-7.8-2.6c-2 0-3.87.41-5.58 1.23Zm11.2 6.03c1.23 1.7 1.85 3.9 1.85 6.58 0 2.66-.62 4.85-1.85 6.6a6.53 6.53 0 0 1-5.61 2.86 6.56 6.56 0 0 1-5.62-2.86c-1.24-1.73-1.85-3.97-1.85-6.72 0-2.59.61-4.74 1.85-6.46a6.56 6.56 0 0 1 5.6-2.87c2.36 0 4.23.96 5.63 2.87Zm33.34 11.32c0 1.25-.06 2.13-.19 2.62-.32 1.4-1.4 2.1-3.22 2.1a4.16 4.16 0 0 1-2.44-.64c-.52-.35-.85-.8-1-1.34-.14-.52-.21-1.8-.21-3.85h-4.82c0 1.85.06 3.23.17 4.14.1.82.36 1.62.78 2.4 1.34 2.46 3.86 3.69 7.6 3.69 2.24 0 4.06-.46 5.47-1.39a6.51 6.51 0 0 0 2.98-4.7c.1-.7.16-1.61.16-2.77v-18.31h-5.28v18.05Zm38.19-3.33c0 2.37-.12 3.97-.34 4.82a3.7 3.7 0 0 1-1.52 2.24c-.99.67-2.17 1-3.53 1-.96 0-1.83-.17-2.64-.51a3.86 3.86 0 0 1-2.1-1.91c-.43-.89-.65-2.77-.65-5.64v-14.72h-5.27v15.14c0 2.97.18 5.02.52 6.16a7.58 7.58 0 0 0 2.95 4c1.75 1.25 4.14 1.87 7.19 1.87 4.32 0 7.36-1.29 9.15-3.87a8.5 8.5 0 0 0 1.37-4.15 41 41 0 0 0 .14-4v-15.15h-5.27v14.72Zm31.85 3.33c0 1.25-.08 2.13-.2 2.62-.33 1.4-1.4 2.1-3.22 2.1a4.15 4.15 0 0 1-2.44-.64c-.52-.35-.85-.8-1-1.34a19.7 19.7 0 0 1-.2-3.85h-4.83c0 1.85.05 3.23.17 4.14.09.82.36 1.62.78 2.4 1.33 2.46 3.85 3.69 7.6 3.69 2.23 0 4.06-.46 5.46-1.39a6.49 6.49 0 0 0 2.99-4.7c.1-.7.16-1.61.16-2.77v-18.31h-5.27v18.05Zm42.3 8.6v-4.2H578.5v-7.78h12.57v-4.19H578.5v-6.28h14.37v-4.2h-19.64v26.64h19.9ZM0 77.17h708.67v5.33H0z"/>
    <path fill="#121760" d="M333.3 31.38v21.38h-6.9V2.78h23.15c4.78 0 8.43 1.07 10.9 3.22 2.9 2.46 4.33 6.1 4.33 10.92 0 4.7-1.43 8.39-4.29 11.06a12.13 12.13 0 0 1-4.66 2.6c-1.8.53-4.08.8-6.87.8h-15.67Zm0-6.01h15.07c1.78 0 3.22-.19 4.35-.55a6.53 6.53 0 0 0 2.86-1.86c1.47-1.53 2.2-3.53 2.2-6.01 0-5.45-3-8.17-9.05-8.17H333.3v16.59Zm62.68 12.08H377.2l-5.75 15.3h-7.4l19.49-49.97h7.02l18.24 49.98h-7.33l-5.49-15.31Zm-2.05-5.75-7.03-20.28-7.5 20.28h14.53Zm31.21-.14v21.2h-6.89V2.78h21.86c5.84 0 10.19 1.33 13.04 4.01 2.87 2.7 4.3 6.18 4.3 10.41 0 4.63-1.35 8.1-4.04 10.47-1.76 1.56-4.41 2.66-7.94 3.27l14.28 21.82h-7.9l-13.57-21.2h-13.14Zm0-5.75h15.53c3.68 0 6.26-.8 7.72-2.41 1.36-1.5 2.05-3.48 2.05-5.94 0-2.83-.92-5.08-2.8-6.78-1.56-1.43-3.94-2.15-7.08-2.15h-15.42V25.8Zm79.98-23.03v6h-15.41v43.98h-6.88V8.78h-15.6v-6h37.9Zm49.53 0v49.98h-6.51l-26.58-38.88v38.88h-6.26V2.78h6.51l26.58 39.1V2.78h6.26Zm49.18 0v6h-28.75V24h25v6h-25v16.75h29.84v6H568.2V2.78h35.64Zm20.65 28.78v21.2h-6.9V2.78h21.87c5.84 0 10.18 1.33 13.03 4.01 2.87 2.7 4.3 6.18 4.3 10.41 0 4.63-1.34 8.1-4.03 10.47-1.76 1.56-4.42 2.66-7.95 3.27l14.28 21.82h-7.9l-13.55-21.2h-13.15Zm0-5.75H640c3.68 0 6.27-.8 7.72-2.41 1.36-1.5 2.06-3.48 2.06-5.94 0-2.83-.93-5.08-2.8-6.78-1.57-1.43-3.94-2.15-7.1-2.15h-15.4V25.8Zm82.87-9.08-6.98.66c-.33-6.91-4.47-10.37-12.47-10.37-3.7 0-6.58.76-8.63 2.26a6.44 6.44 0 0 0-2.82 5.5c0 3.68 2.86 6.17 8.58 7.43l11.3 2.48c3.96.9 6.93 2.43 8.9 4.64a12.8 12.8 0 0 1 3.38 9.04c0 4.59-1.88 8.34-5.63 11.24-3.85 2.94-8.67 4.4-14.48 4.4-4.66 0-8.82-.91-12.48-2.76-2.93-1.43-5.12-3.28-6.54-5.54-1.43-2.25-2.3-5.21-2.6-8.87l7.41-.93c.15 3.04.89 5.5 2.2 7.4a11.3 11.3 0 0 0 4.88 3.83c2.12.91 4.46 1.38 7.06 1.38 4.27 0 7.54-1.12 9.81-3.34a8.76 8.76 0 0 0 2.6-6.55c0-2.15-.62-3.83-1.9-5.05-1.26-1.23-3.35-2.15-6.23-2.78l-8.86-1.91c-4.75-1-8.21-2.42-10.44-4.26a10.96 10.96 0 0 1-4.2-8.93c0-1.85.4-3.66 1.24-5.39a13.2 13.2 0 0 1 3.47-4.46c3.47-2.88 8.2-4.33 14.18-4.33 7.02 0 12.25 2.1 15.68 6.27 1.64 2.02 2.82 5.02 3.57 8.94ZM34.93 29.83H6.95v22.83H.07V2.68h6.88v21.15h27.98V2.68h6.88v49.98h-6.88V29.83Zm49.34 7.52h-18.8l-5.74 15.3h-7.4L71.82 2.69h7.02l18.24 49.98h-7.34l-5.47-15.31Zm-2.06-5.76-7.03-20.27-7.5 20.27H82.2Zm38.69 21.07h-6.81L97.2 2.68h7.33l13.15 40.5 13.62-40.5h7.17L120.9 52.66Zm64.03-49.98v6h-28.75V23.9h25v6h-25v16.75h29.84v6H149.3V2.68h35.63Zm19.3 0v43.98h24.92v6h-31.82V2.68h6.9Zm73.99 13.97a11.08 11.08 0 0 1-2.3 2.68 33.4 33.4 0 0 1-2.82 1.98l-.75-.93-1-1.25-.86-1.14c-.4-.53-.67-.95-.8-1.26l-.56-1.2a5.6 5.6 0 0 1-.6-2.42c0-1.63.52-2.84 1.6-3.69a5.93 5.93 0 0 1 3.8-1.29 5.4 5.4 0 0 1 3.92 1.45 4.76 4.76 0 0 1 1.47 3.53c0 1.23-.37 2.42-1.1 3.54Zm-13.38 16.6a25.62 25.62 0 0 1 6.16-4.6l11.09 13.3c-2.56 3.7-5.98 5.58-10.18 5.58a9.67 9.67 0 0 1-6.4-2.33 7.26 7.26 0 0 1-2.74-5.77c0-2.6.7-4.67 2.07-6.18Zm24.59 7.73a41.68 41.68 0 0 0 2.26-5.66c.44-1.51.79-3.7 1.02-6.49l.03-.33h-6.26v.29c-.14 2.42-.6 4.81-1.4 7.11l-8.4-10.2c6.07-3.53 9.15-7.88 9.15-12.94 0-3.28-1.22-5.88-3.63-7.71a14 14 0 0 0-8.7-2.74c-3.48 0-6.3 1.04-8.37 3.07a10.15 10.15 0 0 0-3.11 7.45c0 1 .08 1.92.25 2.77.16.86.5 1.75.97 2.62.45.83.82 1.5 1.11 1.99.29.47.83 1.24 1.62 2.29a64.2 64.2 0 0 1 1.4 1.89c-3.62 1.9-6.45 3.99-8.4 6.2-2.04 2.29-3.07 5.29-3.07 8.91 0 1.28.2 2.62.6 3.98a17.4 17.4 0 0 0 2.13 4.42c1.02 1.6 2.68 2.92 4.92 3.93a19.7 19.7 0 0 0 8.15 1.53 19 19 0 0 0 8.2-1.84 14.34 14.34 0 0 0 5.87-4.98l5.1 5.99h8.52l-9.96-11.55Z"/>
  </g>
</svg>
