<svg xmlns="http://www.w3.org/2000/svg" viewBox="0 0 395.08 103.18"><defs><style>.cls-1,.cls-2{fill:#f4f9ff;}.cls-2,.cls-3{stroke:#f4f9ff;}.cls-3,.cls-4{fill:none;}.cls-3{stroke-width:12px;}.cls-5{isolation:isolate;font-size:42px;fill:#6ab5ff;font-family:Impact;}</style></defs><g id="Vrstva_2" data-name="Vrstva 2"><g id="Vrstva_1-2" data-name="Vrstva 1"><path class="cls-1" d="M348.18,12h-34.3V0h12.4Z"/><path class="cls-2" d="M63.58,26.51,57.08,39l29.5,51.5h14.5Z"/><path class="cls-1" d="M113.08,89.21c-2,0-2.9-1-2.9-3.1v-54c0-2.1,1-3.1,2.9-3.1h14.7q19.35,0,26.1,7.8c4.6,5.2,6.8,12.6,6.8,22.2s-2.3,17-6.8,22.3-13.2,7.9-26.1,7.9Zm10.8-9.6h4.5q13.05,0,16.8-4.8c2.5-3.2,3.8-8.2,3.8-14.9s-1.3-11.7-3.8-14.9-8.2-4.8-16.8-4.8h-4.5Zm37.4-14.7V32.11c0-1.5,1-2.3,2.9-2.3h6.4c2,0,2.9.8,2.9,2.3v32.4c0,7.6,1.1,12.3,3.3,14.2a11.36,11.36,0,0,0,7.6,2.8,11.11,11.11,0,0,0,7.5-2.8c2.2-1.9,3.4-6.6,3.4-14.2V32.11c0-1.5,1-2.3,2.9-2.3h6.4c2,0,2.9.8,2.9,2.3v32.8c0,9.8-2.1,16.7-6.2,20.6s-9.8,5.9-16.9,5.9-12.8-2-16.9-5.9S161.28,74.71,161.28,64.91Zm47-32.3c-.7-1.8,0-2.8,2-2.8H217a3.93,3.93,0,0,1,3.9,2.9l12.8,35.1a34.61,34.61,0,0,1,1.1,3.6c.1.6.2,1.6.4,3h.2a27.78,27.78,0,0,1,.4-3,34.61,34.61,0,0,1,1.1-3.6l12.8-35.1a3.93,3.93,0,0,1,3.9-2.9h6.7c2,0,2.7.9,2,2.8l-20.1,54c-.8,2.3-2.2,3.4-3.9,3.4h-5.9c-1.8,0-3.1-1.1-3.9-3.4ZM245.08,90c-2,0-2.7-.9-2-2.8l20.6-54c.9-2.3,2.2-3.4,3.9-3.4h5.9c1.8,0,3.1,1.1,3.9,3.4l20.6,54c.7,1.8,0,2.8-2,2.8h-6.7a4.1,4.1,0,0,1-3.9-2.9l-4.3-11.3h-21.2l-4.3,11.3a3.93,3.93,0,0,1-3.9,2.9Zm18.7-24.6h13.5L272.18,52a20.5,20.5,0,0,1-1.1-3.4c-.1-.7-.2-1.8-.4-3.2h-.2c-.1,1.4-.3,2.5-.4,3.2A20.5,20.5,0,0,1,269,52Zm39,24.6c-2,0-2.9-1-2.9-3.1V33c0-2.1,1-3.1,2.9-3.1H309a6.29,6.29,0,0,1,5.5,2.9l21.4,34.3h.3c-.1-1.7-.2-3.4-.2-5V33c0-2.1,1-3.1,2.9-3.1h6.4c2,0,2.9,1,2.9,3.1v53.9c0,2.1-1,3.1-2.9,3.1h-5.8a6.29,6.29,0,0,1-5.5-2.9l-21.8-35h-.3c.1,1.7.2,3.4.2,5v29.8c0,2.1-1,3.1-2.9,3.1Z"/><path class="cls-3" d="M53.88,6h260"/><path d="M.88,90.51,54.38,1l6,11-37.5,65.5,14,.5,8,12.5Z"/><path class="cls-2" d="M60.38,90.51l-15-26,7.5-12,22,38Z"/><path class="cls-2" d="M.88,90.51,54.38,1l6,11-37.5,65.5,14,.5,8,12.5Z"/><path class="cls-2" d="M60.38,90.51l-15-26,7.5-12,22,38Z"/><polygon class="cls-4" points="395.08 90.41 352.18 90.41 353.18 56.11 395.08 56.11 395.08 90.41"/><text class="cls-5" transform="translate(353.1 89.3)">CZ</text></g></g></svg>