<?xml version="1.0" encoding="UTF-8"?>
<svg xmlns="http://www.w3.org/2000/svg" viewBox="0 0 266.93 151.87">
  <defs>
    <style>.cls-1,.cls-5{fill:#1e4980;}.cls-1{stroke:#1e4980;}.cls-2,.cls-4{fill:#fff;}.cls-2,.cls-5{stroke:#fff;}.cls-3{fill:#e30512;}.cls-5{stroke-miterlimit:10;}</style>
  </defs>
  <g id="Vrstva_2" data-name="Vrstva 2">
    <g id="Vrstva_1-2" data-name="Vrstva 1">
      <g id="lksystem-vectorized-logo">
        <path class="cls-1" d="M32.43.5c-1,0-24,107-24,107H115.31L139.2.5Z"></path>
        <polygon class="cls-2" points="58.92 14 41.92 90 91.41 90 92.92 78 59.42 78.5 73.19 14 58.92 14"></polygon>
        <polygon class="cls-3" points="159.6 0.5 135.8 107.5 242.63 107.5 266.93 0 159.6 0.5"></polygon>
        <path class="cls-4" d="M183.43,14.5,166.76,90h14.13l2.54-19.87,12-11.63L208.38,90h16.06l-18-41.5,31.75-34H221.93l-32.5,34s8.67-34,7.33-34Z"></path>
        <path class="cls-5" d="M.51,139.63l6.72-.36c.1,2.15.46,3.59,1.1,4.34,1,1.22,2.94,1.83,5.72,1.83,2.32,0,4-.42,5-1.24a3.74,3.74,0,0,0,1.55-3,3.25,3.25,0,0,0-1.27-2.58,24.29,24.29,0,0,0-4.89-2.51,47.32,47.32,0,0,1-5.83-2.89,8.55,8.55,0,0,1-2.9-3,8.62,8.62,0,0,1-1.05-4.33,9.31,9.31,0,0,1,3.14-7.2c2.09-1.9,5.12-2.86,9.09-2.86s7.15,1,9.37,2.84a10.46,10.46,0,0,1,3.64,7.55l-6.77.3a5.55,5.55,0,0,0-1.78-3.77,6.71,6.71,0,0,0-4.5-1.31,6.63,6.63,0,0,0-4.19,1,3.22,3.22,0,0,0-1.25,2.6,3.05,3.05,0,0,0,1.15,2.44,23.77,23.77,0,0,0,5.08,2.69c4,1.7,6.47,3.09,7.55,4.15a8,8,0,0,1,2.41,6A10.09,10.09,0,0,1,24,148.12q-3.6,3.23-10,3.22a18.3,18.3,0,0,1-7.68-1.48,9.17,9.17,0,0,1-4.58-4.14A12.51,12.51,0,0,1,.51,139.63Z"></path>
        <path class="cls-5" d="M40.72,150.76H33.66l2.79-13.38L27,116.4h7.53l4.26,9.7q1.53,3.5,2,5c.58-1,1.25-2.09,2-3.23l3.25-4.55,4.86-7h8.2L43.39,138Z"></path>
        <path class="cls-5" d="M52.54,138.63l6.72-.36c.1,2.15.46,3.59,1.11,4.34q1.55,1.83,5.71,1.83c2.32,0,4-.42,5-1.24a3.74,3.74,0,0,0,1.55-3,3.25,3.25,0,0,0-1.27-2.58,24.29,24.29,0,0,0-4.89-2.51,48.07,48.07,0,0,1-5.83-2.89,8.29,8.29,0,0,1-3.95-7.35,9.35,9.35,0,0,1,3.14-7.2c2.09-1.9,5.12-2.86,9.09-2.86s7.16,1,9.37,2.84A10.46,10.46,0,0,1,82,125.2l-6.77.3a5.51,5.51,0,0,0-1.78-3.77,6.71,6.71,0,0,0-4.5-1.31,6.63,6.63,0,0,0-4.19,1,3.22,3.22,0,0,0-1.25,2.6,3.05,3.05,0,0,0,1.15,2.44,23.77,23.77,0,0,0,5.08,2.69c4,1.7,6.47,3.09,7.55,4.15a8,8,0,0,1,2.41,6,10.06,10.06,0,0,1-3.59,7.77q-3.6,3.23-10,3.22a18.33,18.33,0,0,1-7.68-1.48,9.17,9.17,0,0,1-4.58-4.14A12.51,12.51,0,0,1,52.54,138.63Z"></path>
        <path class="cls-5" d="M93.43,150.76H86.35l6-28.62H82.27l1.2-5.74h27.07l-1.2,5.74H99.4Z"></path>
        <path class="cls-5" d="M104.8,150.76,112,116.4h25.47l-1.19,5.74h-18.4L116.21,130H134l-1.2,5.74H115L112.86,145h20l-1.22,5.74Z"></path>
        <path class="cls-5" d="M152.57,150.76h-6.7l-1.25-28.71-5.46,28.71h-6.37L140,116.4H150l1.05,24.07,11.72-24.07H173l-7.2,34.36h-6.44l6.77-28.5Z"></path>
        <path class="cls-5" d="M171.3,144.27H178l-1.36,6.49h-6.65Z"></path>
        <path class="cls-5" d="M204,138.38l7.13,1.08a18.29,18.29,0,0,1-6.26,8.85,16.07,16.07,0,0,1-9.77,3.06q-6.31,0-9.86-3.8t-3.55-11a24.06,24.06,0,0,1,2.38-10.73,17.29,17.29,0,0,1,15.78-10,13.31,13.31,0,0,1,9,3,12.23,12.23,0,0,1,4,8.15l-6.77.65a7.24,7.24,0,0,0-2.17-4.35,6.49,6.49,0,0,0-4.28-1.34,9.35,9.35,0,0,0-5.47,1.78,12.05,12.05,0,0,0-4.07,5.56,20.27,20.27,0,0,0-1.52,7.56,9.36,9.36,0,0,0,2,6.38,6.31,6.31,0,0,0,4.93,2.25,8,8,0,0,0,5-1.78A10.54,10.54,0,0,0,204,138.38Z"></path>
        <path class="cls-5" d="M209,150.76l1.13-5.42,19.78-23.2h-16l1.2-5.74h24.77l-1,5.39-20,23.34,3.68-.07q2.25,0,6.21,0h8.11l-1.2,5.74Z"></path>
      </g>
    </g>
  </g>
</svg>
